<?xml version="1.0" encoding="utf-8"?>
<!-- Generator: Adobe Illustrator 22.1.0, SVG Export Plug-In . SVG Version: 6.00 Build 0)  -->
<svg version="1.1" id="Layer_1" xmlns="http://www.w3.org/2000/svg" xmlns:xlink="http://www.w3.org/1999/xlink" x="0px" y="0px"
	 viewBox="0 0 504 432" style="enable-background:new 0 0 504 432;" xml:space="preserve">
<style type="text/css">
	.st0{fill:none;}
	.st1{fill:#231F20;}
	.st2{fill:#9C9EA1;}
</style>
<g>
	<g>
		<g>
			<path class="st0" d="M329.6,201.8c0,0,0.1-0.1,0.1-0.1C329.6,201.7,329.6,201.8,329.6,201.8 M305.5,217.7l1,0.3h-1V217.7z
				 M283.3,149.1C283.3,149.1,283.3,149.1,283.3,149.1C283.3,149.1,283.3,149.1,283.3,149.1 M302.5,112.8l-0.9,0.9
				c-0.1-0.1-0.3-0.2-0.4-0.2c-0.2,0-0.4,0-0.6,0.1c-0.1,0.1-0.3,0.1-0.3,0.1l-0.5,0.4c-0.9,0.4-1.5,0.8-1.9,1.1
				c0.1,0.1,0.1,0.3,0.2,0.3c0,0.3-0.3,0.6-0.9,0.8c-0.6,0.3-1,0.4-1,0.4c-2.2,1.8-3.8,3.3-4.6,4.3c-0.3,0.5-0.5,0.9-0.6,1.2
				c-1,0.7-1.6,1.3-2,1.9c-0.7,1.1-1.1,2-1.3,2.5c-1.3,1.6-2.4,2.8-3.1,3.4l-0.2,1c-0.8,1.5-1.4,2.9-1.9,4.1
				c-0.7,1.3-1.3,2.7-1.7,4.2c-0.1,0.7-0.5,1.9-1.2,3.4c-0.6,1.5-0.9,2.3-0.9,2.5c0,0.2,0.1,0.4,0.2,0.6c0.1,0.1,0.2,0.3,0.1,0.3
				c-0.5,1.8-0.8,3.8-0.8,5.8c0,2,0.2,3.9,0.7,5.7c0.5,1.8,0.7,2.4,0.7,1.9v1.9c0.2,1.2,0.9,2.4,2.1,3.8c0.1,0.5,0.1,0.9,0,1.1
				c0.1,0.1,0.2,0.2,0.4,0.4c0.2,0.2,0.3,0.4,0.3,0.4c0-0.2,0.1-0.4,0.2-0.6c1.8,2.3,3.1,3.9,4.1,5l3.4,2.2c4.8,2.2,7.4,3.3,7.8,3.4
				c5,1.1,9.4,1.7,13.3,1.7c0.2,0,0.5,0,0.9-0.1c0.4-0.1,0.7-0.1,0.8-0.1c0.2-0.3,0.3-0.5,0.3-0.7c0.1,0.1,0.1,0.2,0,0.3
				c0,0.1,0.1,0.1,0.2,0.1c0.2,0,0.3,0,0.3-0.1c0-0.1,0.1-0.1,0.3-0.1c0.1,0,0.3,0.1,0.6,0.3c0.3,0.2,0.5,0.3,0.6,0.3
				c0.1-0.1,0.2-0.2,0.3-0.3c0.1-0.1,0.3-0.3,0.3-0.3c0.9,0.4,1.3,0.7,1.1,0.7c0.2,0,0.5-0.1,0.7-0.2c0.3-0.1,0.5-0.2,0.7-0.2
				c0.1,0,0.2,0.1,0.3,0.2c0,0.1,0.2,0.2,0.4,0.2c0.1,0,0.3-0.1,0.5-0.2c0.2-0.1,0.3-0.2,0.5-0.2c0.1,0,0.3,0,0.6,0.1
				c0.2,0.1,0.4,0.1,0.7,0.1c0.1,0,0.4-0.1,0.7-0.2c0.3-0.1,0.5-0.2,0.7-0.2c0.2,0,0.4,0.1,0.5,0.2c0.1,0.2,0.3,0.2,0.5,0.2
				c0.1,0,0.2-0.1,0.2-0.2c0-0.1,0.1-0.2,0.3-0.2c0.4,0,0.7,0.2,1,0.6c-0.2,0.3-0.4,0.5-0.5,0.6c0.1,0,0.4-0.2,1.1-0.6
				c0.7-0.4,1.1-0.6,1.4-0.6c0.2,0,0.4,0,0.4,0.1c0.1,0.1,0.2,0.1,0.4,0.1c0.1,0,0.2-0.1,0.3-0.2c0-0.1,0.2-0.2,0.4-0.2
				c0.1,0,0.3,0,0.4,0.1c0.1,0.1,0.3,0.1,0.5,0.1c0.2,0,0.6,0.1,1.1,0.2c0.6,0.2,0.9,0.2,1,0.2c0.2,0,0.5-0.1,0.7-0.3
				c0.3-0.2,0.5-0.3,0.7-0.3c0.4,0,0.6,0.2,0.6,0.7c1.4-0.2,3.1-0.2,5.2,0.1c0.1,0.4,0.3,0.6,0.6,0.6c0.2,0,0.3,0,0.3-0.1
				c0-0.1,0.1-0.1,0.3-0.1c1.8,0,3.1,0.7,4,2c-0.4,0.4-0.7,0.7-0.7,0.8c0.9,0.4,1.4,0.7,1.4,0.8c-0.4,0.3-0.7,0.5-0.9,0.6
				c-0.1,0.1-0.1,0.3,0,0.4c-1.5,2.1-2.6,3.8-3.4,5.1c-0.5,0.7-0.9,1.2-1.1,1.5c-0.9,1.5-1.5,2.7-2,3.4c0.1,0,0.3,0.1,0.4,0.2
				l-0.4,0.3c-0.1-0.4-0.2-0.6-0.4-0.6c-0.2,0-0.7,0.5-1.5,1.4c-0.8,1-1.3,1.5-1.5,1.8l0.7,0.7c-0.4,0.2-0.8,0.2-1,0.2
				c0,0.4,0,0.7-0.1,0.9c-0.3,1-0.9,1.5-1.8,1.5c-0.2,0-0.4,0-0.5-0.1c-0.1-0.1-0.2-0.1-0.3-0.1c-0.6,1.3-1.1,2.2-1.5,2.5
				c-0.1-0.1-0.1-0.2-0.1-0.4c0-0.1,0-0.1,0-0.2c-0.3,0.5-0.5,0.9-0.6,1.1c-0.1-0.1-0.4,0.1-0.8,0.4c0.3,0,0.4,0.1,0.4,0.3
				c-0.3,0.1-0.7,0.5-1.3,1.1l-0.4-0.4v0.9c-0.1,0-0.1-0.1-0.1-0.2c0-0.1-0.1-0.2-0.3-0.2c-0.2,0-0.6,0.3-1.1,1
				c-0.5,0.7-0.8,1.1-1,1.2c0.2,0.1,0.3,0.4,0.3,0.7c-0.3,0.1-0.7,0.4-1.2,0.9c-0.5,0.4-0.8,0.7-1,0.7c-0.2,0-0.2-0.1-0.1-0.2
				c0.1-0.1,0.1-0.2-0.2-0.2c-0.5,0-1.4,0.7-2.5,2.2c-1,0.1-1.7,0.3-2.1,0.4c-0.3,0.4-0.6,0.6-0.9,0.6c-0.3,0-0.5,0.1-0.6,0.2
				c-0.1,0.1-0.2,0.2-0.4,0.2c-0.6,0-1.1-0.1-1.7-0.3c0.4-0.9,0.8-1.5,1.2-2v-0.8c2.4-3.2,4.1-5.6,5.3-7.2c-0.1-0.2-0.1-0.4,0-0.7
				c0.4-0.6,0.7-0.8,0.7-0.8c0-0.2-0.1-0.4-0.2-0.5c-0.1-0.1-0.2-0.2-0.2-0.3c-1.3,0.6-1.8,0.9-1.6,0.9c-0.3,0-0.5-0.1-0.7-0.2
				c0,0.2-0.2,0.5-0.7,0.9c-0.3,0.1-0.4,0.1-0.4,0.2c-0.2,0.2-0.8,0.7-1.9,1.4c-1,0.7-1.7,1.3-1.9,1.9c-0.8,0.1-1.6,0.5-2.5,1.4
				c-0.8,0.8-1.6,1.7-2.4,2.5c-1.2,1.7-2,3.1-2.5,4.1v0.6c-0.1,0.1-0.3,0.2-0.4,0.2c-0.5,2-0.8,3.1-0.8,3.4c0,0.2,0,0.6,0.1,1.1
				c0.1,0.5,0.1,0.9,0.1,1.1l1.2-0.2c0.1,0,0.2,0.1,0.1,0.4c-0.1,0.4-0.2,0.6-0.1,0.8c0.4-0.4,0.7-0.8,0.8-1
				c0.3,0.7,0.5,1.3,0.7,1.7c0.4-0.4,0.6-0.4,0.8-0.2l-1.1,1.5c0.7,0.3,1.2,0.5,1.7,0.7c-0.2,0.2-0.2,0.4,0,0.6
				c0.1-0.5,0.1-0.9-0.2-1.2c0.7-0.1,1.3,0.2,1.7,0.9c0.1,0.1,0.4,0.1,0.7,0.1c1.2,0,2.2-0.2,3.1-0.7c0.9-0.5,1.5-0.9,1.9-1.3l1.1-1
				c0.1,0.1,0.1,0.2,0,0.3c-0.1,0.1,0,0.1,0.2,0.1c0.2,0,0.4-0.2,0.6-0.7c0.2-0.5,0.4-0.7,0.6-0.7c0.1,0,0.2,0,0.2,0.1
				c0,0.1,0.1,0.1,0.3,0.1c1,0,3-1.3,6.2-3.8c0.4-0.7,0.7-1.1,0.8-1.4c2.4-1.5,4-2.9,4.9-4c1.8-1.4,3.1-2.5,4-3.2
				c0.4-0.1,0.7-0.1,0.9-0.2c1.1-0.7,2-1.3,2.8-1.8c1.5-3.1,2.6-4.6,3.3-4.6c0.2,0,0.3,0.1,0.4,0.3c0,0.2,0.2,0.3,0.4,0.3
				c0.4,0,0.8-0.4,1.2-1.3c0.2-0.7,0.4-1.1,0.4-1.4c0-0.3,0.1-0.4,0.3-0.4l0.6,0.4c0.3-0.2,0.5-0.4,0.7-0.4c0.2-0.4,0.3-0.6,0.4-0.7
				c0.1-0.1,0.4-0.4,0.8-0.8c0.4-0.4,0.7-0.6,0.8-0.6c0.7,0,2.1-1.3,4-4c1.6-2.3,2.4-4.5,2.4-6.7c0-1.9-0.7-3.6-2.1-5
				c-0.5-0.9-0.9-1.7-1.1-2.3c-1.3-1.5-3-2.7-5-3.6c-2.2-1-3.9-1.4-5.1-1.4l-17-1.7h-19.9c0.3,0-0.1-0.1-1.2-0.3
				c-1.4-0.3-2.8-0.6-4.2-0.8c-1.8-0.4-3.5-1-5.2-1.8c-2.4-1.2-4.7-3-6.7-5.5c-2-2.5-3.1-4.8-3.4-7.1c-0.2-0.3-0.3-0.5-0.3-0.7
				c0-0.7,0-1.8-0.1-3.5c-0.1-1.4-0.1-2.2-0.1-2.5c0,0.3,0.2-0.4,0.6-2.1c0.6-2.6,1.2-4.3,1.9-5.1c1-2,1.7-3.5,2-4.6
				c0.1-0.1,0.2-0.3,0.5-0.6c0.3-0.2,0.4-0.4,0.4-0.4c1.5-0.4,2.3-1.4,2.5-3c0.2-0.2,0.4-0.3,0.4-0.3c0.2,0,0.3,0,0.3,0.1
				c0,0.1,0,0.1,0.2,0.1c0.4,0,0.9-0.5,1.3-1.4c0.3,0.4,0.5,0.6,0.7,0.6c0.2,0,0.4-0.1,0.5-0.3c0.1-0.2,0.3-0.3,0.5-0.3
				c0.2,0,1-0.3,2.3-1c1.6-0.9,2.6-1.4,3.1-1.5l3.5-2.1c0.4-0.1,0.8-0.2,1-0.5c0.3-0.3,0.5-0.4,0.6-0.4c0.2,0,0.4,0,0.4,0.1
				c0.1,0.1,0.2,0.1,0.3,0.1c0.4,0,1.3-0.3,2.5-0.8c-0.1-0.3-0.2-0.7-0.2-1.1c0.3,0.1,0.6,0.3,0.8,0.7c0.3,0.4,0.7,0.6,1.3,0.6
				c0.2,0,0.3,0.1,0.3,0.2c0,0.1,0.1,0.2,0.2,0.2c0.2,0,0.3,0,0.3-0.1c0-0.1,0.1-0.1,0.3-0.1c0.1,0,0.4,0.1,0.8,0.4
				c0.4,0.3,0.7,0.4,0.8,0.4c0.2,0,0.3,0,0.3-0.1c0-0.1,0.1-0.1,0.3-0.1c0.1,0,0.9,0.7,2.3,2c-0.1,0.4,0.1,1,0.7,1.6
				c0.6,0.6,1.2,1.2,1.7,1.7c0.3,0.6,0.5,1,0.7,1.3c0.4,0.4,0.8,0.8,1,1c1.2,3,2.1,5.6,2.9,7.6c0.4,0.1,0.6,0.1,0.6,0.2
				c0.2,1.9,0.4,3.4,0.7,4.4c0.4,0.2,0.7,0.6,0.7,1.1c0-0.3,0.2,2.1,0.7,7.3c0.7-0.1,1.5,0.2,2.1,0.9c0.7,0.8,1.3,1.2,1.9,1.2
				c0.1,0,1-0.2,2.8-0.5c1.4-0.4,2.2-0.7,2.5-1.1c1.1-1.5,1.7-3.1,1.7-4.7c0-0.2-0.1-0.4-0.2-0.4c-0.1-0.1-0.2-0.1-0.1-0.2
				c0.2-0.6,0.2-1.2,0.2-2c0-1.5-0.4-3.3-1.1-5.5c-0.7-1.8-1.3-3.6-1.9-5.4l-0.8-0.6c0.1-0.1,0.1-0.3,0.1-0.6c0-0.1-0.5-1-1.4-2.9
				c-0.2-0.1-0.4-0.3-0.6-0.3c-0.8-1.4-1.5-2.4-2-3.1c-1.1-1.5-1.8-2.2-2.2-2.2c-0.2,0-0.4,0.1-0.6,0.2c-0.4-1-1.1-2-2.3-3.2
				c-0.6-0.6-1.6-1.5-3.1-2.6c0,0.5,0,0.8-0.1,1l-0.7-0.7c0.2-0.2,0.3-0.4,0.1-0.7c-3.2-2.1-5.8-3.7-7.7-5c-0.7-0.3-1.1-0.8-1.3-1.7
				c0,0.5-0.2,0.8-0.6,0.8c-1.3-1.2-2.5-1.9-3.6-2.1c0.5,0.5,0.5,1.1-0.1,1.9c-0.1-0.1-0.2-0.2-0.3-0.3c-0.1,0-0.2-0.1-0.4-0.2
				c0.3-0.7,0.4-1.3,0.3-1.7c0.1,0.5-0.2,0.8-0.8,0.9c-0.6,0.1-1.1,0.2-1.5,0.3c-0.1,0.6-0.3,1-0.7,1.1c-0.9-0.6-1.5-1-1.9-1.3
				c0.2-0.2,0.4-0.3,0.7-0.3c0.4,0.2,0.6,0.4,0.8,0.4c0.2-0.2,0.3-0.5,0.3-0.9c-0.5,0-0.8,0-0.9-0.1c0.3-0.3,0.4-0.6,0.4-0.8H302.5z
				"/>
			<path class="st1" d="M309.1,209.3c2.3-1.9,6.5-5.3,8.4-7.8c0.2-0.3,1.1-0.6,1.4-0.4c0.3-0.1,0.6-0.2,0.9-0.4
				c0.2-0.1,1.2-0.5,1.4-0.2c1.1,1.8-11.9,19.3-0.2,9.1c0.3-0.2,1.3-0.6,1.5-0.3c0.4,0.7,0.6,0.2,0.5-1.3c0-0.1,0-0.1,0.1-0.1
				c0.6-0.8,1.3-1.5,2.1-2.2c0.3-0.2,1.1-0.6,1.5-0.3c1.2,0.8-1.1-0.7-1.1,0c0-0.4,1.3-0.7,1.6-0.5c-0.1-0.2-0.1-0.3-0.2-0.5
				c-0.1-0.1,0.1-0.2,0.1-0.3c0.4-0.5,0.8-1,1.3-1.5c0.2-0.3,1.7-0.6,1.6-0.3c0-0.5,0-1,0-1.5c0.2-0.4,1.2-0.6,1.5-0.4l1.1-1.7
				c0-0.3,0.7-0.4,1-0.5c-0.2-0.1-0.4-0.2-0.6-0.3c-0.1-0.1,0-0.1,0-0.2c0.9-1.2,1.9-2.2,3.1-3.2c0.3-0.2,1.3-0.6,1.5-0.3
				c-0.4,0.2-0.7,0.3-1.1,0.5c0,0-0.1-0.1,0-0.1c0.9-1.5,8.4-10.4,6-11.7c-0.1-0.1,0-0.1,0-0.2c-0.7-2.2-1.7-3-3-2.4
				c-0.2,0.1-0.8,0.3-1,0.1c-1.9-1.9-11.4-1.3-13.7-0.2c-0.1,0.1-1.6,0.4-1.2,0c0.1-0.3,0.3-0.5,0.5-0.8c-0.3,0.3-1.1,0.5-1.5,0.3
				c-0.9-0.4-7.3,0.3-6.9-0.1c-0.3,0.3-1.1,0.5-1.5,0.3c-0.9-0.5-1,0-2-0.6c0,0,0,0,0-0.1c0-0.1,2.2,0,0.3,0.4
				c-2.1,0.4-4.2,0.3-6.4,0.1c-3.2-0.4-26.4-4.4-23.4-12c-0.1,0.3-1.4,0.7-1.6,0.4c-5.1-8.1-5.1-19-1.6-27.9
				c2.1-5.2,4.1-11.4,8.2-15.3c0.7-0.7,8.7-9.1,8.9-8.8c-0.1-0.1,0.2-0.2,0.2-0.2c3.2-1.9,4-2.7,6.6-2.7c0.1,0,0.4,0,0.3,0.2
				c0.1,0.2,0.2,0.5,0.3,0.7c0.1,0,0.2,0.1,0.1,0.2c-0.1,0.3-0.2,0.6-0.3,0.9c-0.1,0.4-1.2,0.6-1.5,0.4c0.6,0.4,3.1-0.9,3.4-1.2
				c0.2-0.2,1.7-0.7,1.6-0.3c0.4,2.1,0,2.3-1.1,0.6c0-0.4,1.3-0.7,1.6-0.5c0.9,0.6,1.8,1.2,2.6,1.7c0.2-0.3,1.3-0.7,1.6-0.4
				c2.8,2.5,5.8,4.7,9,6.6c0,0,0,0,0,0.1c-0.3,0.3-0.6,0.5-0.9,0.8c0-0.4,1.3-0.7,1.6-0.5c-0.8-0.7,6.6,5.1,4.9,5.7
				c0.2-0.1,0.8-0.3,1-0.1c8,8,17.1,36.6-2.6,28c0,0,0,0,0-0.1c-0.5-5.5-6.1-31.3-13.7-28.7c-0.2,0.1-0.8,0.3-1,0.1
				c-1.2-1.2-0.9-1.2-0.9-1c0,0.2-0.6,0.4-0.7,0.4c-3.7,1.1-4.3,1.2-7.9,3.3c-0.3,0.2-1.9,0.4-1.2,0c0.1-0.1,8.1-4.1,8.1-4.4
				c-0.1-0.4,1.3-0.7,1.6-0.5c2.6,2.1,4.6,1.2,7.9,4.1c4.9,4.2,8.4,13.6,8.9,19.6c1.5,16.7,17.7-3.1,6.2-11.3c0,0-0.1-0.1,0-0.1
				c0.4-1.8-6.1-8.6-5.6-8.8c-0.2,0.1-0.9,0.3-1.1,0c-1.3-1.8-2.6-3.5-3.9-5.3c0,0.4-1.3,0.7-1.6,0.5c-0.9-0.9-9.6-6.2-8.6-7.6
				c-0.2,0.3-1.2,0.6-1.5,0.4l-2.2-0.7c0,0.4-1.3,0.7-1.6,0.5c-0.2-0.2-0.4-0.4-0.7-0.4c0,0-0.1-0.1,0-0.1c-0.1,0.7,1.3-3.6-1.1,0.4
				c-0.2,0.3-1.2,0.6-1.5,0.4c-0.6-0.4-1.2-0.9-1.9-1.3c-0.2-0.1,0.2-0.3,0.3-0.4c1.2-0.6,2.6-0.3,0.7-0.5c-0.1,0-0.2-0.1-0.1-0.2
				c0.8-0.7,0.8-0.7,0.2-0.1c-0.3,0.3-1.1,0.5-1.5,0.3c-1-0.5-0.7,3.3-2,1.4c0,0.1,0,0.1-0.1,0.1c-4,3.5-12.4,9.5-13.6,15
				c-0.8,3.7-11.9,25-4.8,28.8c0,0,0,0,0,0.1c0,3.4,2.2,5.4,1.4,7.4c0.1-0.3,1.3-0.7,1.6-0.4c3.9,4.9,5.9,6.5,11.5,9
				c2.9,1.3,16.4,5.4,17.7,2.8c0.1-0.3,1.6-0.7,1.6-0.4c0,0,1,0.6,1.1,0.5c0.3-0.3,1.1-0.5,1.5-0.3c1.5,0.9,7.4-0.1,6.9,0.3
				c0.3-0.2,1-0.4,1.4-0.3c0.3,0.2,0.7,0.4,1,0.6c0.1,0.1,0,0.2,0,0.2c2-2,2.8,1.1,6.9-0.8c0.3-0.1,1-0.4,1.3-0.1
				c1.8,2.2,8.1,0.5,10.9,3c0.1,0.1,0,0.1,0,0.2l0.8,1.3c0.2,0.1-0.1,0.2-0.1,0.3c-0.9,0.6-7.3,10.7-6.8,11c0.1,0,0,0.2,0,0.2
				c-0.1,0.1-0.3,0.2-0.4,0.3c-0.3,0.2-1.2,0.6-1.5,0.3c-0.7,0.8-1.1,1.7-1.3,2.8c0.3,0.3-0.8,0.5-0.9,0.5c-1.4,0.3-3.9,3.9-4.2,4.5
				c-0.1,0.2-1.5,0.7-1.6,0.4c-0.5-2,1.1,1.2,0.6,0.7c0.1,0.1,0,0.1,0,0.2c-0.4,0.4-0.9,0.7-1.3,1.1c-0.2,0.2-1.2,0.6-1.5,0.3
				c0.4,0,0.7,0,1.1,0c0,0.4-1.4,0.8-1.6,0.4c0,0.7-0.2,1.4-0.6,2c0,0.1,0,0.1-0.1,0.1c-1.1,0.8-1.2,0.9-2.3,1.6
				c-0.2,0.1-1.3,0.6-1.4,0.2c0.5,2.2-6.4,3.3-8.2,3c-0.1,0-0.2-0.1-0.1-0.2c12-19.6,3.4-9.5-2.3-2.7L309.1,209.3z"/>
		</g>
		<path class="st1" d="M321.7,218.7c0,0-1.6,1-2.4,0.9c0,0,0-0.2-0.2-0.2c-0.2,0-0.4,0.2-0.4,0.2l-0.1-0.2c0,0,0.9-0.4,1-0.1
			c0.1,0.2,2.2-0.9,2.2-0.9c6.5-5,21.3-16.3,20.5-16.9c0.3,0.2,1.2-0.1,1.5-0.3c1.6-1.7,1.6-1.8,1-2.3c0.3,0.2,1.1-0.1,1.4-0.3
			c8.4-5.6,10.4-11.9,6.1-20.7c-3.5-7.3-21-6.2-27.2-6.8c-15.1-1.5-29.2,3.8-39.3-11.9c-3.5-5.4,4-26.6,5.6-25.5
			c0.3,0.2,1.2-0.1,1.5-0.3c0.2-0.2,0.3-0.4,0.5-0.5c0.3,0.2,1.1-0.1,1.4-0.3c2-1.1,4.2-2,6.2-3c0.9-0.5-0.6-0.4-0.9-0.2
			c-1.7,0.9-5.3,2.8-5.8,2.4c-0.3-0.2-1.3,0.1-1.5,0.3c-7.5,8.1-18.9,30.1,0.6,36.7c11.7,4,22.8,2.1,34.8,3.3
			c8,0.8,19.5-0.1,23.6,8.5c2.8,5.8,1.8,11.6-4.1,15.4c-0.1,0.1-2.3,1.6-1.9,1.8c-0.3-0.3-1.3,0.1-1.5,0.4c-0.6,0.8,0,2.9-1.1,2.1
			c-0.3-0.2-1.2,0.1-1.5,0.3C339.2,202.7,326.8,215.5,321.7,218.7L321.7,218.7z"/>
	</g>
	<g>
		<polygon class="st1" points="342.8,248.3 342.8,248.3 339.3,244.2 339.3,244.2 		"/>
		<line class="st1" x1="343.1" y1="248.7" x2="343.1" y2="248.7"/>
		<path class="st1" d="M434.4,227.8c-0.2-0.2-0.5-0.3-1-0.3v0.8h0.8C434.1,228.3,434.2,228.1,434.4,227.8"/>
		<polygon class="st1" points="429.4,241.1 429.5,240.1 429.2,240.1 429,241.1 		"/>
		<path class="st1" d="M433.2,229.8c-0.7,1.9-1.1,3.4-1.2,4.3c-0.4,0.7-0.8,1.3-1,1.6c0.4-0.1,0.7-0.7,1.1-1.6
			c0.2-0.7,0.4-1.4,0.7-2.1l0.7-2.2v-0.8C433.3,229.8,433.2,230.1,433.2,229.8"/>
		<path class="st1" d="M411.9,233.5c0,0,0-0.1,0-0.1C411.9,233.4,411.9,233.4,411.9,233.5"/>
		<g>
			<path class="st1" d="M93.8,236.5C93.8,236.5,93.9,236.5,93.8,236.5C93.9,236.5,93.9,236.4,93.8,236.5"/>
			<path class="st1" d="M173.3,198.5c-0.9,0.4-1.5,0.7-2,0.9c1,0,1.7-0.1,2-0.2V198.5z"/>
			<path class="st1" d="M170.2,198.7c-1.2,0-2.6,0.3-4.1,0.9c1.4,0,3.1-0.2,5-0.5C170.8,198.8,170.5,198.7,170.2,198.7"/>
			<polygon class="st1" points="153.6,203.1 153.6,202.7 153.1,202.7 153.1,203 153.1,203.1 			"/>
			<path class="st1" d="M176.3,199.1l-0.3-0.8c-0.9,0.4-1.6,0.7-2.1,0.9c0.7,0,1.2,0,1.7-0.1H176.3z"/>
			<path class="st1" d="M161.6,201.5c0.3-0.1,0.8-0.3,1.4-0.8c0.6-0.5,1-0.7,1.1-0.7c0.2,0,0.3,0.1,0.4,0.2c0.1,0.1,0.2,0.2,0.4,0.2
				c0.2,0,0.5-0.4,0.9-1.2c-0.4,0.2-0.7,0.4-0.9,0.4c-0.2,0-0.4,0-0.5-0.1c-0.2-0.1-0.3-0.1-0.5-0.1c-0.9,0-1.3,0.2-1.3,0.5
				s0,0.5-0.1,0.6l-0.5-0.4c-0.3,0.1-0.5,0.2-0.7,0.2c0,0.1,0.1,0.4,0.2,0.7C161.5,201.1,161.6,201.4,161.6,201.5"/>
			<path class="st1" d="M190.3,201.1c0.1-0.1,0.2-0.2,0.2-0.4l-0.6,0.1C190,200.8,190.2,200.9,190.3,201.1"/>
			<path class="st1" d="M193.8,201.9c-0.9-0.4-1.5-0.7-1.9-0.9v0.8l0.5-0.2C192.7,201.6,193.1,201.7,193.8,201.9"/>
			<path class="st1" d="M202.8,205.5c-0.4,0-0.8-0.1-1.3-0.4c0.4,0.4,1.1,0.7,1.9,0.7C203.1,205.6,202.9,205.5,202.8,205.5"/>
			<path class="st1" d="M153.1,203c-1.1,0.6-1.6,1-1.7,1h0.8L153.1,203z"/>
			<path class="st1" d="M181,198.9c0.1,0.3,0.5,0.6,1.2,0.8l0.6-0.5c0.3,0.4,0.5,0.7,0.6,0.7h1c0.5,0.1,0.8,0.1,1,0.1
				c-0.2,0-0.2-0.2,0.1-0.6c0.1,0.1,0.3,0.2,0.5,0.2c0-0.1,0.1-0.3,0.3-0.5c-4-0.4-7.1-0.8-9.3-0.9v1h3.8
				C180.8,199.1,180.9,199,181,198.9"/>
			<path class="st1" d="M200.8,205.1c0.2,0,0.4-0.1,0.6-0.3c-0.2-0.1-0.7-0.3-1.4-0.6c-0.7-0.3-1-0.5-1.2-0.5c-0.2,0-0.3,0-0.2,0.1
				c0,0.1,0,0.1-0.2,0.1c-0.1,0-0.3-0.1-0.5-0.4c-0.2-0.2-0.4-0.4-0.5-0.4h-0.9C199.5,204.4,201,205.1,200.8,205.1"/>
			<rect x="188.1" y="242.5" class="st1" width="1.8" height="0.4"/>
			<polygon class="st1" points="212.7,235 212.3,234.9 211.8,235.9 212.2,236 			"/>
			<polygon class="st1" points="211.3,236.6 211.5,236.8 212,236.3 211.8,236.1 			"/>
			<path class="st1" d="M200.6,212.3c0-0.1,0-0.1,0-0.2C200.5,212.2,200.5,212.3,200.6,212.3"/>
			<polygon class="st1" points="196.9,239.1 196.6,239.5 196.9,239.7 197.1,239.2 			"/>
			<path class="st1" d="M182.4,242.6C182.4,242.6,182.5,242.6,182.4,242.6l-0.2-0.3C182.2,242.4,182.3,242.5,182.4,242.6"/>
			<path class="st1" d="M214.9,232.4c0.1-0.1,0.2-0.3,0.4-0.6c0.2-0.3,0.3-0.5,0.4-0.6c-0.4,0.3-0.8,0.6-1,0.7
				C214.8,232.1,214.9,232.3,214.9,232.4"/>
			<g>
				<path class="st1" d="M62.4,268.1c0.1-0.1,0.1-0.1,0.2-0.2C62.5,267.9,62.4,268,62.4,268.1"/>
				<rect x="82.4" y="259" class="st1" width="0.4" height="0.7"/>
				<rect x="104.4" y="275.7" class="st1" width="0.7" height="0.4"/>
				<path class="st1" d="M110,266.1c0,0.1,0,0.1,0,0.2C110.1,266.2,110.1,266.1,110,266.1"/>
				<polygon class="st1" points="93.4,257.2 93.7,257.3 94,256.5 93.6,256.5 				"/>
				<path class="st1" d="M109.6,263c0.1,0.3-0.3,0.6-1,1.1c-0.1,0.5-0.2,0.8-0.6,1c-0.2-0.8-0.3-1.2-0.5-1.3
					c-0.6,1.7-1.3,2.5-2.2,2.3c0.5-0.7,0.8-1.2,1-1.4c-0.1-0.2-0.2-0.3-0.3-0.5c-0.8,0.1-1.3,0.6-1.6,1.4c-1.4,0.9-2.5,1.6-3.1,2.1
					c-1.2,0.4-2.2,0.7-3.1,0.7c-0.3,0-0.8-0.3-1.3-0.9c-0.9-1.4-1.5-2.4-1.9-3.2c0-0.7-0.3-2.4-0.9-5.1c-0.3,0-0.5,0.1-0.7,0.2
					l-0.4-0.4c0-0.1-0.2,0.1-0.5,0.4c-0.4-0.6-0.6-1.1-0.6-1.5c0.4-0.1,0.6-0.4,0.7-0.7c0.1-0.2,0.1-0.7,0-1.2
					c-0.1-0.7-0.2-1.2-0.2-1.4c0.4-0.4,0.6-0.7,0.7-1c0.1-0.2,0-0.5-0.3-0.8c0,0.1-0.2,0.3-0.6,0.4V252c0.4-0.4,0.6-0.6,0.7-0.6
					c-0.4-0.4-0.7-0.7-0.7-1.1c0-0.2,0.1-0.5,0.3-0.8c0.2-0.3,0.3-0.6,0.3-0.7c-0.1-1.4,0-2.2,0.1-2.3c-0.1,0-0.2,0.1-0.4,0.2
					c-0.2,0.1-0.3,0.2-0.5,0.2v-2c0.5-0.7,0.7-1.2,0.5-1.5c-0.1-0.3-0.2-0.7-0.2-1c0-0.4,0.1-0.9,0.3-1.6c0.2-0.7,0.4-1.2,0.4-1.5
					c-0.1,0-0.2-0.1-0.4-0.2c0.3-0.3,0.5-0.5,0.6-0.6c0.1-1.2,0.2-1.8,0.3-1.9c0-0.2-0.1-0.3-0.4-0.4c-0.3-0.1-0.4-0.2-0.5-0.4
					c0.4-0.2,0.7-0.5,0.8-0.9c-0.6-0.6-0.7-1.2-0.4-1.8c0.8-1.4,1.2-2.4,1.3-2.8c0.1-1,0.2-1.7,0.2-2.2c0.2-0.2,0.3-0.3,0.4-0.5
					c0.3-1,0.5-1.7,0.5-2.2c0.2-0.6,0.5-1,0.7-1.3c0.4-1.9,0.8-3.2,1.2-3.9c0.2-0.3,0.6-0.8,1.3-1.5c0.7-0.7,1-1,1-1.2
					c0-0.2-0.1-0.5-0.2-0.9c-0.2-0.4-0.3-0.7-0.4-0.9c-0.1-0.2-0.4-0.5-0.9-0.9c-0.5-0.4-0.8-0.7-1-0.7c-0.2,0-0.3,0-0.3,0.1
					c0,0.1-0.1,0.1-0.3,0.1c-0.6,0-1.9-0.3-3.9-1v-0.6c-0.4,0-0.7,0.1-0.8,0.2c-0.4-0.1-0.7-0.1-1.1,0.2c-0.3,0.2-0.6,0.5-0.9,0.7
					c-0.4,0.8-0.6,1.5-0.7,2.2c0.1,1.1,0.1,2-0.2,2.7c-0.6,1.4-0.8,2.3-0.8,2.5c-0.1,0.8-0.1,1.4,0,1.9c-0.1,0.1-0.2,0.3-0.3,0.6
					s-0.2,0.4-0.2,0.5c0,0.6,0.1,1.1,0.3,1.3c-0.8,2.7-1.3,4.9-1.5,6.5c-0.4,1-0.7,1.8-0.9,2.5c0.1,1,0.1,1.7,0,2.2
					c-0.3,0.2-0.5,0.4-0.7,0.6l-0.4-0.3c0.1,0,0.2-0.3,0.1-0.8c-0.1,0.9-0.5,2-1.1,3.2c0.3,0,0.6,0.2,0.8,0.6
					c-0.1,0.1-0.1,0.1-0.2,0.2c0,0.1-0.1,0.1-0.1,0.2c-0.1-0.1-0.3-0.2-0.7-0.4c0,0.4-0.1,1.1-0.4,2.1c-0.3,0.9-0.4,1.6-0.4,2
					c0,0.4,0.1,0.7,0.2,0.9l-0.6,0.7c-0.4,1.2-0.7,2.1-0.8,2.7c0.4,0.3,0.6,0.7,0.5,1c-0.1,0.9-0.4,1.5-0.7,1.9
					c-0.1-0.9-0.2-1.5-0.5-1.8c-0.3-0.3-0.4-0.7-0.4-1c0-0.1,0.3-0.6,0.8-1.3c0.4-0.6,0.4-1.1,0-1.4c-0.1,0.1-0.1,0.3,0,0.6
					c-0.9,1.6-1.3,2.5-1.3,2.9c0,0.4,0.2,0.7,0.7,1.1c0-0.1,0.1-0.2,0.2-0.4c0.1,0.1,0.1,0.2,0.1,0.5c0,0.2-0.2,0.5-0.5,1
					c-0.3,0.5-0.5,0.8-0.7,0.8c-0.1-1,0-1.7,0.1-2.2c-1,1.6-1.6,2.4-1.7,2.5c0.2,0.4,0.2,0.8,0,1c0.3,0,0.7,0.2,1.2,0.7
					c-0.1-0.1-0.2-0.3-0.4-0.7c-0.2-0.3-0.4-0.5-0.4-0.7l0.4-0.4c0.1,0,0.2-0.1,0.3-0.2c0.1-0.1,0.2-0.2,0.3-0.2
					c0.1,0.1,0,0.2-0.1,0.3c-0.1,0.1,0,0.1,0.2,0.1c0.2,0,0.4,0,0.4-0.1c0-0.1,0-0.1,0.1-0.1c0,0.2,0,0.5,0.1,0.8
					c0.1,0.3,0.1,0.6,0.1,0.8s-0.1,0.6-0.2,1.1c-0.1,0.8-0.2,1.3-0.3,1.5c-0.3-0.2-0.5-0.7-0.5-1.3c0-0.4-0.3-0.6-0.8-0.6
					c-0.4,0-0.4-0.2,0-0.6c0-0.5-0.2-0.2-0.6,0.7c-0.3-0.3-0.5-0.5-0.7-0.6c0.2,0.4,0.1,1-0.3,1.6c-0.1,0-0.3-0.1-0.5-0.2
					c0.1,0.7-0.4,1.9-1.5,3.4c-1.2,1.7-2,3-2.2,3.9c-0.5,0.3-0.9,0.6-1.1,0.9c0.1,1.1-0.3,1.8-1.2,2.2c-0.2-0.3-0.4-0.6-0.4-0.8
					c-0.4,0.6-0.7,1-0.9,1.4c-0.2,0.4-0.3,0.7-0.4,0.8L68,267c-1.7,1.7-2.7,2.5-3.2,2.5h-1c-0.9,0-1.4-0.4-1.4-1.2
					c0-0.1,0-0.1,0-0.2c-0.2,0.2-0.4,0.4-0.7,0.4c-0.3-1.1-0.6-1.8-0.7-2.3c-0.3-2-0.5-3.5-0.7-4.6s-0.3-1.7-0.3-1.9
					c-0.4-0.1-0.6-0.3-0.6-0.5c0-0.3,0-0.3,0.1-0.3c0.1,0.1,0.2,0.2,0.3,0.3c0.1-2.6,0.2-4.5,0.2-5.7c-0.6-0.8-0.9-1.6-0.9-2.2
					c0-0.2,0.1-0.5,0.2-0.9c0.1-0.4,0.2-0.7,0.3-0.9c0-0.2-0.1-1.7-0.3-4.4c0-0.2-0.1-0.7-0.2-1.4c-0.2-0.7-0.2-1.1-0.2-1.3
					c0-0.1,0.1-1,0.3-2.7c0.2-1.7,0.3-3,0.3-3.7c0.1,0.1,0.2-0.1,0.3-0.5c0-0.1,0-0.3-0.1-0.6c-0.1-0.3-0.1-0.4-0.1-0.5
					c0.6-2.8,0.8-4.6,0.8-5.2v-2.2c0.2-0.2,0.3-0.5,0.5-0.7c0.1-0.6,0.1-1.2,0.1-1.7s0.3-1.1,0.9-1.7l-0.3-0.2
					c-0.2-0.3-0.4-0.6-0.5-0.7c0.6-0.3,0.8-0.8,0.7-1.4c-0.1-0.7-0.1-1.2-0.1-1.3c0.3-0.6,0.6-1,0.7-1.2c0.1,0,0.1,0,0.2,0.1
					c0.1,0.1,0.2,0.1,0.4,0.1c0.4,0,0.6-0.2,0.6-0.6c0.1-1.2,0.5-2.1,1.1-2.4c0.6-2,1-3.5,1.2-4.6c0.2-0.1,0.6-0.4,1-0.9
					c0.4-0.5,0.7-0.8,0.9-0.8c0.1,0,0.3,0.1,0.6,0.2c0.2,0.2,0.5,0.2,0.7,0.2c0.3,0,0.9-0.4,1.7-1.1c0.2-0.5,0.4-0.9,0.7-1.1
					c0-0.1,0.1-0.4,0.2-0.7c0.1-0.3,0.2-0.6,0.2-0.7l-0.6-1.1c-0.1-0.8-0.2-1.6-0.4-2.4c-0.3-1.5-0.7-2.2-1.4-2.2
					c-0.2,0-0.3,0.1-0.4,0.3c0.1-0.6-0.2-1.1-0.8-1.4c-0.6-0.3-1.2-0.6-1.8-0.9c-0.9-1-1.6-1.7-2.1-2.2c-0.1-0.1-0.3-0.2-0.7-0.2
					c-0.2,0-0.3,0-0.5,0.1c-0.1,0.1-0.3,0.1-0.5,0.1c-0.2,0-0.3-0.1-0.4-0.2c-0.1-0.2-0.2-0.2-0.4-0.2h-1.3c0.2,0.3,0.1,0.5-0.2,0.8
					c-0.3-0.2-0.6-0.4-0.9-0.4l-0.9,0.7c0,0.3,0,0.7-0.1,1c-0.1,0.6-0.5,1-1.2,1.4c0,0.1,0,0.3,0.1,0.7c0.1,0.3,0.1,0.5,0.1,0.6
					c-0.2,1.1-0.4,2-0.4,2.5c-0.4,1-0.7,1.8-1,2.3c-0.7,3.6-1.3,8.4-2,14.4c-0.1,1.2-0.1,2-0.2,2.5c0.2,0.5,0.3,0.8,0.3,0.8
					c-0.2,1.1-0.3,2-0.3,2.5c-0.2,0.4-0.3,0.5-0.3,0.5v15c0,0.2,0.1,0.5,0.3,1.1c0.2,0.5,0.3,0.9,0.3,1.1c0,2.4,0,3.5-0.1,3.2
					c0.3,1.9,0.5,3.1,0.5,3.4c0,0.1-0.1,0.4-0.2,0.9l0.7,2.8c-0.1,1.2-0.2,2.1-0.4,2.7c0.2,1.6,0.4,2.8,0.5,3.6
					c0.3,0.1,0.5,0.2,0.5,0.3c-0.1,0.9,0.1,1.5,0.7,2c-0.4,0.6-0.6,0.9-0.6,1.1c0.2,0.3,0.3,0.6,0.5,0.8c0.2,1.6,0.3,2.3,0.3,2
					c0,0.1,0.1,0.4,0.3,0.9c0.2,0.5,0.3,0.8,0.3,1s0,0.4-0.1,0.6c-0.1,0.2-0.1,0.3-0.1,0.4c0.2,0,0.4-0.2,0.7-0.5
					c0.1,0.4,0.1,0.7,0,0.8c0.2,0.2,0.3,0.3,0.5,0.4c-0.1,0.8-0.1,1.4,0.1,1.9c0.2,0.4,0.8,1.1,1.7,1.9c0.8,0.7,1.2,1.5,1.4,2.3
					c0.9,0.4,2.3,1.2,4,2.5c0.4-0.4,0.7-0.6,0.8-0.7l0.3,0.3c0,0.3-0.1,0.6-0.4,0.8c0.1,0,0.3,0.1,0.6,0.3c0.8-0.8,1.5-1.4,2.1-1.9
					l0.5,0.5c0-0.3,0.1-0.6,0.2-0.9c0.1,0,0.1,0,0.2,0.1c0.1,0.1,0.2,0.1,0.4,0.1c0.7,0,1.5-0.8,2.4-2.4c0.1-0.3,0.1-0.4,0.2-0.6
					c0.9-0.9,1.6-1.6,2.1-2.1c0.4-0.5,0.7-0.9,0.7-1.2c0.1,0,0.3,0.1,0.5,0.2c0-0.1-0.1-0.2-0.2-0.3c-0.2-0.2-0.2-0.3-0.2-0.3
					c0.5-0.5,0.8-0.9,1-1.2c0.4,0.4,0.5,0.7,0.4,0.7c0.4-0.2,0.7-0.6,0.8-1.4c0.1-0.7,0.2-1.1,0.3-1.2l-0.5,0.4
					c-0.2-0.1,0-0.4,0.5-0.8l-0.6,0.1c0.4-0.1,0.6-0.3,0.6-0.6c0-0.1-0.1-0.3-0.2-0.7c-0.1-0.3-0.2-0.6-0.2-0.8
					c0-0.4,0.2-0.8,0.7-1.1c0.2,0.5,0.1,1-0.2,1.6c0.7-0.9,1.2-1.6,1.5-2.1l0.4,0.4c-0.6,0.8-0.8,1.4-0.8,1.9c0,0.3,0.1,0.5,0.3,0.5
					c0.4-0.8,0.7-1.5,0.8-2.1c0.1,0.2,0.2,0.3,0.3,0.4c-0.4-1.1-0.2-1.8,0.7-2.3v-0.8c-0.4,0-0.7,0-0.8-0.1c0.2-1,0.4-1.7,0.4-2.1
					c0.2,0.4,0.3,0.7,0.4,0.8l0.9-0.9c-0.4,0-0.5,0-0.5-0.1c0-0.1,0-0.2-0.1-0.4c0.4-0.4,0.8-0.6,1-0.6c0.2-0.7,0.3-1.2,0.5-1.6
					c-0.3,0-0.6-0.1-0.8-0.4c0.2-0.6,0.4-0.9,0.5-0.9c0.6,0.7,1,1.2,1.1,1.5c-0.2-0.7,0.1-1.2,0.7-1.5c0.6,0.6,0.9,0.8,1,0.8
					l0.4,0.3l-0.4,0.4c-0.2,1.9,0.1,3.3,0.8,4c-0.1,0.6-0.1,0.9,0,1c0.3,0.4,0.5,1.1,0.7,2c0.2,0.4,0.5,0.6,0.7,0.7
					c-0.1,0.5,0.1,1.2,0.6,2c0.4,0.4,0.7,0.7,0.9,0.8c0.1,0.6,0.4,1.2,0.8,1.6c1.9,2.2,2.9,3.4,3,3.6c1.7,1.6,2.7,2.6,2.9,2.8
					c0.4-0.4,0.7-0.6,0.8-0.6c0.4,0.8,0.8,1.3,1.1,1.7c0-0.4,0.2-0.7,0.5-0.7c0.2,0,0.5,0.1,0.8,0.2c0,0.7-0.1,1-0.2,0.8
					c1,0.3,1.8,0.5,2.4,0.7c0-0.3,0.1-0.5,0.2-0.7c0.1,0.1,0.2,0.3,0.2,0.7c0.1-0.6,0.4-1.1,0.8-1.3c0.1,0.1,0.3,0.2,0.5,0.2
					c0-0.4,0.2-0.7,0.6-1c0.4,0.4,0.5,0.7,0.5,0.7c0-0.3,0.1-0.6,0.4-0.8l0.4,0.5l0.7-0.7c0.4-0.2,0.7-0.5,0.7-1.1
					c0-0.5,0.1-0.9,0.1-1c0.4,0.2,0.6,0.3,0.6,0.4c0-0.7,0.1-1.1,0.3-1.3c0.5-0.4,0.9-0.7,1.2-0.8c0.5-1.4,0.8-2.5,1-3.3
					c-0.5,0.5-0.8,0.8-1,0.8c0-0.4,0.1-0.9,0.3-1.4c0.2-0.5,0.3-0.8,0.3-1c0.4,0.1,0.6,0.3,0.7,0.4c0-0.1-0.1-0.3-0.1-0.4
					c0-0.4,0.2-0.9,0.6-1.5c0.4-0.6,0.6-1,0.7-1.3l-0.7,0.7C110.2,263.3,109.9,263.1,109.6,263 M57.4,248.3h-0.3l0.2-1.1h0.4
					L57.4,248.3z M57.8,242.9c0-0.4-0.1-0.8-0.2-1.1c-0.1-0.3-0.2-0.5-0.2-0.5c0-0.1,0.3-0.4,0.8-0.9
					C58,241.8,57.9,242.6,57.8,242.9 M58.2,239.8l-0.3-0.4l0.2-0.2l0.4,0.3L58.2,239.8z M58.7,246h-0.4v-0.7h0.4V246z M59.9,253.6
					v0.6l-0.3-0.6H59.9z M59.2,256.3h0.4v0.6h-0.4V256.3z M69.4,266.7c0-0.5,0.1-0.8,0.3-0.8c0.2,0.1,0.3,0.2,0.5,0.3
					C69.8,266.6,69.6,266.7,69.4,266.7 M74.1,260.7c-0.2,1-0.4,1.6-0.4,1.9c-0.2-0.1-0.4-0.2-0.6-0.3
					C73.5,261.6,73.8,261.1,74.1,260.7 M72.7,271.9l-0.5-0.6l0.2-0.2l0.6,0.6L72.7,271.9z M73.8,270.9c0-0.3-0.1-0.5-0.2-0.7
					c-0.1,0-0.4,0.2-1,0.7c0.1-0.1,0.1-0.5,0.1-1c0.1,0,0.2,0,0.4,0.1c0.2,0.1,0.4,0.1,0.5,0.1C74.4,270.3,74.4,270.6,73.8,270.9
					 M74.2,269.3c-0.2-0.1-0.5-0.2-0.9-0.2c0.6-0.2,0.9-0.3,1-0.3l0.2,1C74.1,269.7,74.1,269.5,74.2,269.3 M74.6,263.5
					c-0.4,0.3-0.6,0.6-0.7,0.9c-0.2-0.2-0.4-0.3-0.6-0.3c0.3-0.7,0.5-1.3,0.7-1.8c0.2,0.1,0.4,0.2,0.6,0.2V263.5z M84.1,238l0.3-1
					h0.3l-0.2,1H84.1z M84.6,242.3c0,0.4-0.2,0.7-0.5,1c-0.1-0.2-0.2-0.4-0.3-0.6C84,242.7,84.3,242.6,84.6,242.3 M83.6,242.8
					l0.3,0.2l-0.3,0.5l-0.3-0.1L83.6,242.8z M82.2,245.8c0,0.1,0.1,0.2,0.2,0.4c0.3-0.9,0.5-1.6,0.7-2.1c-0.3,1.2-0.6,2.4-1,3.6
					C81.8,247.3,81.9,246.7,82.2,245.8 M82.8,248.6l-0.3,0.6l-0.3-0.2l0.3-0.5L82.8,248.6z M81.5,254c-0.3,0.7-0.7,1.2-1,1.5
					c0-0.2,0.1-0.5,0.4-0.7c-0.1-0.1-0.3-0.1-0.6,0.1C80.5,254.6,80.9,254.3,81.5,254 M79.9,253.1h0.4v0.6h-0.4V253.1z M79.5,256.5
					c0.3,0.9,0.5,1.5,0.7,1.9l-0.3-0.2c-0.3-0.1-0.5-0.1-0.7-0.1L79.5,256.5z M75.5,259.2c0.4,0.2,0.6,0.3,0.8,0.3l-0.5,1
					c-0.2,0.4-0.5,0.5-0.8,0.5C75.2,260.7,75.4,260.1,75.5,259.2 M75,269.1l-0.3-1.2H75V269.1z M75,261.9c0.5,0,0.7,0.2,0.7,0.7
					c-0.3-0.3-0.5-0.3-0.5,0.1c0-0.1,0-0.2-0.1-0.3C75.1,262.2,75,262.1,75,261.9 M75.6,266.2l0.3,0.1l-0.3,0.6l-0.3-0.2L75.6,266.2
					z M75.9,268.2c0-0.3-0.2-0.5-0.5-0.5c0.1-0.3,0.2-0.4,0.3-0.6c0.2,0.1,0.4,0.2,0.7,0.2c0.3-0.7,0.5-1.3,0.5-1.7
					c0,0.1,0,0.2,0.1,0.4c0.1,0.2,0.1,0.4,0.1,0.6C77.1,266.9,76.7,267.4,75.9,268.2 M77.3,265.5h-0.7c0-0.1,0.2-0.3,0.7-0.8V265.5z
					 M77.2,264.1l0.4-0.1l0.2,0.7L77.2,264.1z M76.9,263.3c0.3-0.4,0.5-0.6,0.6-0.6v0.8C77.2,263.5,77,263.5,76.9,263.3 M77.5,261.2
					c0.1-0.1,0.2-0.2,0.3-0.5c0.1-0.2,0.2-0.4,0.2-0.5c0.1,0.1,0.1,0.5,0.1,1.2C77.9,261.4,77.6,261.3,77.5,261.2 M78.5,256.7
					l-0.5-0.4c0,0.2-0.1,0.5-0.2,1c-0.1,0.5-0.2,0.9-0.2,1.2c-0.1,0-0.2,0-0.5,0.1c-0.2,0.1-0.4,0.1-0.5,0.1v-1.1
					c0-0.1,0.1-0.4,0.4-0.9c0.3-0.6,0.4-1,0.4-1.2c-0.1,0,0,0.1,0.3,0.4l0.5-0.5c-0.2-0.2-0.3-0.5-0.3-0.7c0.4,0.4,0.7,1,0.9,1.8
					C78.8,256.5,78.6,256.6,78.5,256.7 M79,259.2l0.3,0.1l-0.3,0.6l-0.3-0.1L79,259.2z M79.2,261.7c0-0.1-0.1-0.2-0.2-0.3
					c-0.2-0.1-0.2-0.2-0.2-0.3h0.8C79.5,261.4,79.4,261.6,79.2,261.7 M79.7,261.1l-0.6-0.5c0-0.3,0.1-0.6,0.4-0.8
					c0.1,0.1,0.3,0.2,0.4,0.2c0.2-0.6,0.3-1.1,0.4-1.5c0.1,0.3,0.2,0.5,0.2,0.4C80.5,259.7,80.2,260.4,79.7,261.1 M80.9,258.4h-0.4
					v-1.2h0.4V258.4z M81.5,257.1c-0.7-0.1-1.1-0.2-1.2-0.2v-0.5c0.7-0.2,1.1-0.7,1-1.6C81.6,255.8,81.6,256.6,81.5,257.1
					 M83.6,254.3l0.3-1.2c0.1,0.4,0.2,0.9,0.2,1.5C83.9,254.4,83.8,254.3,83.6,254.3 M83.9,249.4c0.1,0.1,0.2,0.2,0.3,0.5
					c0.2,0.2,0.3,0.4,0.4,0.5c-0.1,0.1-0.3,0.1-0.7,0.1c-0.3,0.6-0.4,1.1-0.4,1.4c-0.5,0-1,0.6-1.4,1.7c-0.3,0.1-0.5,0.2-0.8,0.2
					c0.3-0.6,0.4-1,0.5-1.5c0.1-0.4,0.2-0.8,0.6-1.2c0.2,0,0.3,0,0.3,0.1c0,0.1,0,0.1,0.1,0.1v-0.6c0-0.3-0.2-0.6-0.5-0.9
					c0.6-0.6,1-1.2,1.3-1.6c0.3-0.5,0.5-0.8,0.6-1.1c0.1-0.4-0.1-0.6-0.7-0.6c0.1,0,0.5-0.3,1.1-0.9c0.2,0.4,0.3,0.9,0.3,1.5
					c0,0.6-0.1,1-0.3,1.2c-0.4,0.4-0.8,0.9-1.2,1.3C83.4,249.7,83.6,249.6,83.9,249.4 M85.5,249.9h-0.4V249h0.4V249.9z M108,266.2
					v1.4l-0.7-0.2C107.4,267.3,107.6,266.9,108,266.2 M106.9,268.9l-0.3-0.1l0.2-0.6l0.4,0.1L106.9,268.9z M108.3,270.1h-1
					c0.4-0.4,0.7-0.7,1-0.8V270.1z"/>
				<polygon class="st1" points="94.3,258.5 94,258.4 93.8,258.9 94,259 				"/>
				<path class="st1" d="M161.6,240.6h-0.8c-0.3,0.8-0.6,1.6-0.9,2.4c-0.3,0.8-1,1.7-2,2.7c-1.6,2.1-2.8,3.7-3.6,5
					c0.2,0.1,0.2,0.3,0.2,0.6c-0.1,0-0.1-0.1-0.2-0.2c-0.1-0.1-0.2-0.2-0.3-0.2c-0.2,0-0.4,0.3-0.7,0.7c-0.3,0.5-0.4,0.8-0.4,0.8
					c-3.6,3.5-5.4,5.3-5.6,5.3c-1.1,0.9-2.2,1.7-3.3,2.6c-1.4,1.1-2.7,1.8-3.7,2.2c-0.3,0.1-0.7,0.4-1.5,0.8
					c-0.8,0.4-1.2,0.7-1.4,0.7c-1.1,0-1.7-2-1.8-6.1c0,0.1,0.1-0.1,0.2-0.7c0.2-4.1,0.5-6.6,0.7-7.3c0.2-0.8,0.4-1.4,0.6-1.9
					c0.7-3.5,1-5.6,1-6.2c0-0.1-0.1-0.8-0.3-1.9c-0.2-1.1-0.3-2-0.4-2.5c-1.9-1.1-2.8-1.6-2.6-1.6c-0.1,0-0.6,0.1-1.3,0.3
					c-0.7,0.2-1.2,0.3-1.4,0.3c-0.1,0-0.2-0.1-0.4-0.2c-0.1-0.2-0.3-0.2-0.4-0.2c-0.5,0-0.9,0.2-1.3,0.7c-1,1.9-1.8,3.3-2.4,4.3
					c-0.2,0.1-0.3,0.2-0.5,0.2c-0.1,0.6-0.3,1.2-0.7,2c-0.4,0.7-0.6,1.4-0.6,1.9c-0.4,0.4-0.7,0.6-0.8,0.7c-0.2,0.6-0.4,1-0.6,1.2
					c-0.5,0.9-1,1.9-1.5,2.8c-0.6,1.2-1.3,2-2,2.5c-0.1-0.1-0.1-0.2-0.2-0.2c-0.1,0-0.2-0.1-0.2-0.1c0.2-0.6,0.3-1,0.5-1.3
					c0.3-1.7,0.5-3.3,0.5-4.9c0-1.6-0.3-2.5-0.9-2.9c-0.4-0.1-0.8-0.1-1-0.2c-0.8-0.7-1.4-1.3-1.8-1.8c-0.7-0.3-1.3-0.5-1.8-0.5
					c-0.1,0-0.3,0-0.6,0.1c-0.3,0.1-0.5,0.1-0.6,0.1c-0.6,4.4-1,8.7-1.2,13.1c0.1,0.2,0.1,3.1,0,8.8c0.1,0.2,0.2,0.3,0.3,0.4
					c0.2,2.4,0.4,4.2,0.6,5.4c0.2,0.2,0.3,0.4,0.5,0.6c0,0.5,0,0.9-0.1,1.1c2.1,2.7,3.2,4,3.6,4c0.4,0,0.7-0.1,0.9-0.4
					c0.1,0.2,0.1,0.5,0,0.7c0.8,0.6,1.3,0.8,1.4,0.8h0.7c0.4-1.1,0.9-1.8,1.3-2.2c0.7-2.7,1-4.5,1-5.4c0-0.1-0.1-0.3-0.2-0.6
					c-0.1-0.2-0.2-0.4-0.1-0.6c0.1,0,0.1,0,0.1,0.1c0,0.1,0.1,0.1,0.3,0.1c0.2,0,0.3-0.4,0.5-1.1c0.1-0.7,0.2-1.2,0.3-1.3
					c0-0.8,0.2-1.6,0.6-2.5c0.7-1.7,1.2-2.7,1.2-2.9c-0.1-0.4-0.2-0.8-0.3-0.9c0.7-2.4,1.4-4.2,2.1-5.4c0.9-2.1,1.6-3.7,2.1-4.8h0.2
					c0.4,0.9,0.6,1.8,0.6,2.6c0,0.1-0.1,0.3-0.2,0.5c-0.1,0.2-0.2,0.4-0.2,0.4c0,2,0,3,0.1,2.8c0,0.2-0.1,0.5-0.3,0.8
					c-0.2,0.4-0.3,0.7-0.3,0.9c0-0.1,0.2,0.4,0.6,1.5c0,0.6,0,1.1-0.1,1.5c0.5,1.9,0.7,2.9,0.7,3c1.4,3.3,2.7,5.4,3.7,6.4
					c0.4,0.6,0.8,1,1,1.3c1.5,1,2.6,1.5,3.4,1.5h1.2c1.3,0,2.7-0.4,4-1.2c1.2-0.7,2.7-1.9,4.5-3.6c1.1-0.9,1.7-1.5,1.9-1.6
					c0.6-0.6,1.1-1.1,1.6-1.5c0.5-0.4,1.3-1.3,2.5-2.7c0.2-0.4,0.3-0.8,0.3-0.9c1.1-0.9,1.8-1.8,2.3-2.7c1.2-1.6,2.1-2.7,2.6-3.6
					c0.2-0.5,0.3-0.9,0.3-1.1c0.4-0.7,0.8-1.2,1.1-1.4c0.4-0.9,0.7-1.4,0.9-1.7c0.1-0.3,0.1-0.6,0.1-0.8c0.8-0.7,1.2-1.4,1.2-2
					c0-0.2,0-0.6,0.1-1.2c0.1-0.5,0.1-0.9,0.1-1C164.1,243.1,163.3,242,161.6,240.6"/>
				<path class="st1" d="M219.3,222.1c0.2,0.2,0.4,0.4,0.4,0.5c0-0.2-0.1-0.4-0.3-0.7c0-0.2,0-0.5,0.1-0.9v-0.8
					c0,0.1,0.1,0.2,0.3,0.1c-0.4-0.1-0.6-0.7-0.8-1.6c-0.2-0.9-0.7-1.5-1.5-1.6c-1.1-1.4-2-2.4-2.5-3.2c-0.4-0.3-0.8-0.5-1-0.7
					c-0.1-0.4-0.3-0.8-0.6-1.2c-0.7-0.9-1.8-1.7-3.3-2.3c-0.2-0.6-0.6-0.8-1.2-0.8c0.4,0.6,0.8,1,1,1.3c-0.4,0.2-0.6,0.3-0.7,0.4
					c-0.1-0.1-0.1-0.4-0.1-0.8c-0.1,0.1-0.3,0.2-0.5,0.2c-0.2,0-0.5-0.2-0.8-0.7c-2.1-1-3.7-1.7-4.7-2.2c-3.9-1.7-6.9-3-9.1-3.8
					c0,0.4-0.1,0.7-0.3,0.7c-0.2,0-0.4-0.1-0.7-0.2c-0.3-0.2-0.5-0.2-0.7-0.2s-0.4-0.1-0.7-0.4c-0.3-0.3-0.5-0.4-0.6-0.4
					c-0.2,0-0.3,0-0.2,0.1c0,0.1,0,0.1-0.2,0.1l-0.3-0.6c-0.1-0.1-0.4-0.1-0.8-0.1c0.3,0-1.2-0.2-4.2-0.7c0.3,0.1,0.6,0.3,1,0.5
					c0.3,0.2,0.5,0.5,0.3,0.9l-0.4-0.5c-0.6,0.3-1.1-0.1-1.4-0.9c-2-0.3-3.5-0.4-4.6-0.4c-2.9-0.4-4.6-0.6-5.2-0.6
					c-0.1,0-0.6,0.1-1.5,0.3c-0.9,0.2-1.4,0.3-1.6,0.3l-0.6-0.2c-0.2,0-2.1,0.3-5.6,1c-3.6,0.7-5.4,1-5.6,1c-0.6,0-0.9-0.6-0.9-1.7
					c0-0.2,0.1-0.3,0.2-0.4c0.5,0.4,0.7,0.7,0.7,0.9h1c-0.4-0.3-0.8-0.5-1-0.7c0.5-0.5,0.7-0.8,0.7-0.9c-1.7,0.6-2.8,1.1-3.3,1.7
					c-0.1-0.1-0.1-0.4-0.1-0.8c-0.4,0-0.7,0.2-1,0.5c-0.1-0.2-0.1,0.4-0.2,1.8c-2.6,0.8-4,1.2-4.2,1.2c-0.3,0-0.5,0-0.6-0.1
					c-0.2-0.1-0.3-0.1-0.3-0.1c-1.6,1.7-2.9,2.9-3.7,3.7c-0.4,0.1-0.7,0.2-0.8,0.3c0.3,0.3,0.4,0.5,0.4,0.6c-0.6,0.4-1,1.1-1.2,2.1
					c0.4,0,0.6,0.1,0.8,0.4c-0.1,0.5,0.1,1.1,0.5,1.7c0.8,0.9,1.4,1.5,1.9,1.9c1.6,1.9,2.7,3.3,3.4,4.3c0.5,0.4,0.9,0.7,1.1,0.8
					c2.1,3.4,3.8,6,5,7.9c1.4,2.9,2.6,5,3.6,6.5c1.7,3.4,2.9,6.1,3.7,8.1c0.6,2.1,0.9,3.7,1.1,4.8c0.3,0.5,0.6,0.8,0.8,0.9
					c0.1,1,0.1,1.8,0.1,2.3c0.6,2.1,1,3.7,1.3,4.8c0.7,4.3,1.3,7.8,1.8,10.8c0.4,1.4,0.8,2.5,1.1,3.3c0.1,0.5,0,1.3-0.3,2.4
					c0.3,0.4,0.6,0.7,0.7,0.9c0.4,1.4,0.6,2.4,0.5,2.9c0.6,0,0.9,0.3,1,0.8c0,0.3,0,0.7,0.1,1c0.7,1,1.1,1.7,1.1,2
					c0.1,0.1,0.1,0.1,0.2,0.2c0.1,0.1,0.2,0.1,0.5,0.1c0.1,0,0.2,0,0.1-0.1c0-0.1,0-0.1,0.2-0.1c0.3,0,0.3,0.1,0.1,0.2
					c0.7,1.8,1.8,2.7,3.1,2.7c0.1,0,0.2-0.1,0.4-0.3c0.2-0.2,0.4-0.3,0.7-0.3c-0.2-0.7-0.2-1.2,0-1.6c0.8,0.3,1.4,0.5,1.7,0.7
					c0-0.3,0.2-0.5,0.5-0.5v-4.5c-0.1-0.6-0.3-1.1-0.4-1.3c-0.4-0.6-0.7-1-0.9-1.1c0.1-0.1,0.2-0.3,0.2-0.5c0-0.3-0.2-0.6-0.7-1.1
					c-0.4-0.5-0.7-0.8-0.7-1v-1.2c-0.1-0.2-0.2-0.5-0.4-0.7c-0.1-1.6-0.4-2.7-0.8-3.5c0.1-0.5,0-1.6-0.5-3.4
					c-0.1-0.8-0.2-1.4-0.1-1.9c-0.4-0.6-0.7-1.1-0.9-1.4c-0.2-0.9-0.3-1.6-0.4-2.1c-0.4-0.9-0.7-1.6-0.8-2.1c-0.1-0.5-0.1-0.9,0-1.1
					c-1-1.8-1.4-4-1.2-6.5c0,0.1-0.1,0.2-0.2,0.2c-0.2,0-0.3-0.1-0.3-0.2c0-0.2,0-0.2-0.1-0.2c0.4-1.2,0.7-2.1,0.8-2.8
					c-0.4,0-0.6-0.1-0.6-0.3c0.4-0.4,0.6-0.7,0.6-0.8c0-0.7-0.1-1.5-0.3-2.4c0,0.2,0,0.4-0.1,0.6c-0.1,0.2-0.2,0.3-0.4,0.2
					c-0.1-0.1-0.2-0.3-0.2-0.7c0-0.2,0.2-0.7,0.7-1.5c-0.1-2-0.2-3.2-0.3-3.8v-7.7c0.3-2.9,0.6-5.1,0.8-6.6c0-0.2,0.1-0.4,0.2-0.6
					c0.2-0.2,0.2-0.3,0.2-0.4c-0.2-0.6-0.3-1-0.4-1.1c0.5-0.6,1.2-1,2-1.2v-1.4c-0.3,0.1-0.6,0.2-0.7,0.2c-0.2,0-0.5-0.3-0.8-1
					c-0.3-0.7-0.6-1.1-0.8-1.3c-0.4-0.4-0.7-0.7-1-1c-0.5-0.5-0.7-1-0.6-1.5c-1.1-0.8-1.7-1.3-2-1.5c-0.3-0.2-0.4-0.3-0.4-0.3v0.7
					c-0.4-0.2-0.6-0.5-0.7-0.7c0.5-0.2,1.6-0.7,3.3-1.4c1.7-0.7,2.6-1,2.8-1c0.1,0,0.2,0.1,0.3,0.2c0.1,0.1,0.2,0.2,0.3,0.2
					c0.2,0,0.4-0.1,0.7-0.3c0.2-0.2,0.5-0.3,0.7-0.3c0.1,0,0.3,0,0.4,0.1c0.2,0.1,0.3,0.1,0.5,0.1c0.1,0,0.2-0.1,0.3-0.2
					c0.1-0.2,0.2-0.2,0.3-0.2c0.2,0,0.3,0.1,0.5,0.2c0.1,0.2,0.3,0.2,0.5,0.2c0.2,0,0.4-0.1,0.6-0.2c0.2-0.2,0.3-0.2,0.5-0.2
					c0.2,0,0.4,0.1,0.6,0.2c0.2,0.2,0.3,0.2,0.5,0.2c0.2,0,0.4-0.1,0.7-0.4c0.2-0.3,0.5-0.4,0.7-0.4c0.1,0,0.5,0.2,1,0.5
					c0.5,0.3,0.9,0.5,1.1,0.5c0.2,0,0.3-0.1,0.5-0.2c0.1-0.2,0.3-0.2,0.5-0.2c0.1,0,0.3,0.2,0.7,0.5c0-0.3,0.1-0.6,0.4-0.8
					c0.1,0.2,0.4,0.4,0.7,0.7c0.3,0.3,0.6,0.5,0.7,0.8c0.5-0.5,1-0.7,1.4-0.7c0.1,0.5,0.6,0.8,1.5,1c0.8,0.2,1.4,0.5,1.7,0.9
					c0.2-0.4,0.5-0.7,0.7-0.7c1,0.9,1.8,1.4,2.3,1.5c0.1-0.1,0.2-0.2,0.3-0.4c0.2-0.2,0.3-0.4,0.3-0.4c1.2,0.8,2.1,1.4,2.7,1.8
					c0,0.1,0.1,0.4,0.1,0.6c0.1-0.1,0.2-0.2,0.3-0.3h0.6l0.5,0.4c0-0.4,0.2-0.6,0.6-0.6c0.5,0.5,0.8,0.9,1,1.1
					c1.6,0.6,2.3,0.9,2.2,0.9c0.1,0,0.2,0,0.3-0.1c0-0.1,0.1-0.1,0.2-0.1c0.2,0,0.4,0.1,0.5,0.4c0.2,0.2,0.3,0.4,0.4,0.4
					c1.6,0.2,2.5,0.3,2.6,0.4c-0.1,0.2-0.2,0.3-0.2,0.5c0,0.2,0.3,0.5,0.8,0.6c0.6,0.2,0.9,0.3,1,0.3c-0.2,1.1-0.2,1.7,0,2.1
					c0.4,0.1,0.6,0.3,0.6,0.6c0,0.9-0.7,2.3-2.2,4.3c-0.1,0.4-0.1,0.7,0.1,0.9c-0.6,0.4-1.1,0.7-1.4,0.9c0.5-0.2,0.8-0.3,1-0.1
					c-0.8,0.9-1.5,1.6-2.1,2.1c-0.4,1-0.5,1.9-0.3,2.7c-0.2,0.2-0.3,0.3-0.5,0.3l-0.6-0.6c0.3,0.3,0.2,0.5-0.1,0.8
					c-0.3-0.3-0.4-0.5-0.5-0.5c-0.1,0.4-0.3,0.9-0.5,1.4c-0.2,0.5-0.5,0.7-0.9,0.8c-0.3,0.6-0.5,1.2-0.7,1.8c-0.4,1-0.8,1.5-1.1,1.5
					c-0.1,0-0.2,0-0.1-0.1c0-0.1,0-0.1-0.2-0.1c-0.2,0-0.6,0.7-1.1,2.2c-0.3-0.2-0.5-0.3-0.7-0.3c-0.3,0-0.4,0.1-0.3,0.3
					c-0.2,0.5-0.3,0.8-0.3,0.8c-0.5,0.2-0.8,0.3-1,0.5c-0.6,1.7-1.4,2.6-2.5,2.6c-0.2,0-0.4,0-0.6-0.1c-0.2-0.1-0.4-0.1-0.4-0.1
					c-0.2,0.6-0.4,1-0.6,1.3c-0.3,0-0.6,0.2-1.1,0.5c-0.5,0.3-0.8,0.5-0.9,0.5h-0.8c-0.4,0.1-0.8,0.1-1,0.1c0.1,0,0.2,0.1,0.2,0.2
					l-1.1,0.9c-1.2,0-2.1-0.2-2.7-0.5c-0.2-0.1-0.5-0.3-0.7-0.6c-0.2-0.2-0.3-0.4-0.5-0.4c-0.1,0-0.2,0-0.1,0.1c0,0.1,0,0.1-0.2,0.1
					c-0.2,0-0.5-0.2-0.9-0.5c-0.4-0.3-0.7-0.5-0.9-0.5c-0.2,0-0.4,0.1-0.6,0.4c-0.2,0.2-0.3,0.4-0.4,0.4l0.4,0.4
					c0-0.3,0.1-0.5,0.2-0.7c0.2,0.3,0.3,0.5,0.3,0.7c-0.4,0.1-0.8,0.2-0.9,0.2c-0.3,0.4-0.4,0.8-0.4,1.4c0-0.6,0.2-0.7,0.5-0.3
					c0,0.2-0.3,0.4-0.8,0.7c0.4,0.7,0.7,1.2,1,1.3c-0.4,1-0.6,1.7-0.8,2.2c0.9,0.7,1.6,1.2,2,1.7c0.2,0.9,0.3,1.4,0.3,1.5
					c0.1,0,0.1,0,0.2-0.1c0.1-0.1,0.3-0.1,0.5-0.1c-0.2,0,0.4,0.4,1.7,1.3c-0.1,0.1-0.1,0.4-0.1,0.7c0.5-0.2,0.8-0.4,1-0.4
					c0.2,0,0.6,0,1.3,0.1c0.7,0.1,1.1,0.1,1.5,0.1c0.8,0,1.4-0.1,2.1-0.3c3.3,2.6,5.9,4.7,7.7,6.6c1.5,1.2,2.6,2.1,3.4,2.7
					c1.2,1.2,2.1,2.1,2.6,2.6c5.4,4.3,8.5,6.5,9.3,6.5c0.2,0,0.3,0,0.4-0.1c0.1-0.1,0.1-0.1,0.2-0.1c-0.4-1.1-0.7-1.9-1.1-2.2
					c-1.2-1-2.2-1.7-3-2.2c-1.9-1.7-4.2-4.2-6.8-7.2c-0.5-0.9-0.9-1.6-1.1-2.2c-2.9-3.2-5.1-5.7-6.6-7.3v-0.8
					c0.2-0.1,0.5-0.1,0.9-0.1c2.6-2.9,4.3-4.5,5.3-4.7c-0.3-0.2-0.4-0.5-0.2-0.7c0.3,0.2,0.4,0.4,0.4,0.4c0.1,0,0.3-0.1,0.6-0.2
					c0.2-0.1,0.3-0.1,0.4,0c0-0.6,0.3-1.2,0.9-1.8c0.6-0.7,1.1-1,1.5-1.1c0-0.1,0.1-0.4,0.2-0.9c0.1-0.5,0.2-0.9,0.1-1.2
					c0.2-0.2,0.4-0.3,0.7-0.3c0.2,0,0.4,0,0.5,0.1c-0.1,0.1-0.1,0.2-0.2,0.3c-0.1,0.2-0.2,0.3-0.2,0.3c0.1,0,0.2,0,0.5-0.1
					c0.3-0.1,0.5-0.1,0.5-0.1c-0.2-0.6,0.1-1.2,1.1-1.9c0.3,0.3,0.4,0.5,0.6,0.5v-1l-0.8,0.6c-0.1-0.1-0.2-0.2-0.1-0.3
					c0.7-0.7,1.2-1.3,1.7-1.7c-0.5,0.2-0.8,0.2-1,0c1.1-1.2,2-2.1,2.5-2.6c-0.1,0-0.2,0-0.3-0.1c0-0.4,0.3-0.6,0.9-0.7
					c0.2,0.2,0.3,0.5,0.3,0.7c-0.4,0.7-0.7,1.3-0.8,1.6c0.6-0.9,1.1-1.5,1.4-1.8c-0.6-0.3-1-0.6-1.2-0.8c0.7-1.1,1.1-1.6,1.3-1.7
					v0.5v0.6l0.7-0.7c0.2,0.3,0.5,0.4,0.8,0.4c0.4-1.1,0.6-1.7,0.6-1.8c-0.1,0-0.2-0.1-0.3-0.2c0-0.6,0-1,0.1-1.4
					c0.1-0.2,0.3-0.3,0.6-0.3v0.6c0.1,0.4,0.1,0.6,0.1,0.7c0,0.4,0.2-0.1,0.7-1.5c-0.1,0-0.2-0.1-0.4-0.2c0.5-0.5,0.9-0.6,1.2-0.3
					c0-0.4,0.2-0.8,0.5-1.1h-0.2c-0.1,0.1-0.3,0.1-0.5,0.1c-0.1,0-0.3-0.2-0.7-0.5c0.2-0.2,0.4-0.3,0.4-0.5c0-0.1,0-0.2-0.1-0.3
					v-0.3c0-0.1,0.2-0.2,0.7-0.4v0.8v0.7c0.2-0.6,0.5-0.9,0.7-1c0.1,0.1,0.2,0.2,0.2,0.4l0.6-0.5c-0.7-0.9-1-1.4-1-1.6
					C219.2,222.3,219.3,222.2,219.3,222.1 M164.9,223.4c-0.2,0.6-0.3,1-0.5,1.3c-0.9-0.2-1.8-0.9-2.6-2.2c-1-1.6-1.8-2.5-2.4-2.9
					c-0.1-0.5-0.5-1.4-1.1-2.6c-0.6-1.2-0.9-2-0.9-2.2c0-0.6,0.5-1.2,1.6-1.8c2-1.1,3.5-1.8,4.6-2.2h0.7c0.1,0.6,0.2,1.8,0.2,3.7
					c-0.1,1.6,0.1,2.7,0.5,3.3V223.4z M173.9,244.9h-0.4v-1h0.4V244.9z M173.6,241.9l0.5,0.6l-0.7-0.3L173.6,241.9z M172.6,237.4
					l0.3,0.1l-0.3,0.6l-0.3-0.1L172.6,237.4z M187.9,202.5l-0.2-0.5l0.3-0.1l0.3,0.6H187.9z M189.3,204.3l-0.7-0.3v-0.3l0.7,0.3
					L189.3,204.3z M189.2,203.2L188,203c0.1-0.2,0.5-0.4,1-0.6h0.3C189.2,202.6,189.2,202.9,189.2,203.2 M194.5,205.2l0.2-0.2
					l0.3,0.3L194.5,205.2z M195,204.3V204l0.5-0.3l0.2,0.3L195,204.3z M194.1,244.7l-0.3-0.1l0.3-0.6l0.3,0.1L194.1,244.7z
					 M196.5,242.4v-0.3l0.5-0.3l0.1,0.3L196.5,242.4z M198.1,246.2l-0.3-0.4l0.3-0.2l0.3,0.4L198.1,246.2z M200,241.5h-0.4v-0.7h0.4
					V241.5z M202.4,237.3l-0.2-0.3l0.5-0.5l0.3,0.2L202.4,237.3z M204.3,236.6h0.3v0.7L204.3,236.6z M204.8,237.8l-0.3-0.1l0.4-0.8
					l0.3,0.1L204.8,237.8z M205.9,240.4l-0.3-0.3l0.7-0.7l0.2,0.2L205.9,240.4z M207.4,233.6l-0.3-0.7h0.3V233.6z M208,236.3
					c-0.1,0-0.3-0.1-0.4-0.2c0-0.1,0.2-0.4,0.6-0.7c0,0.1,0,0.2,0.1,0.4c0.1,0.2,0.1,0.3,0.1,0.4L208,236.3z M208.8,230.4l0.3-0.6
					l0.3,0.2l-0.3,0.5L208.8,230.4z M209.5,234.8l-0.3-0.2l0.3-0.5l0.3,0.1L209.5,234.8z M211.7,226.7c0.3-0.1,0.4-0.2,0.5-0.2
					c-0.1,0.1-0.2,0.4-0.4,0.7C211.6,227,211.6,226.8,211.7,226.7 M210.9,227.3l-0.3-0.1l0.3-0.6l0.3,0.1L210.9,227.3z M212.3,232.2
					c-0.5-0.3-0.8-0.5-0.9-0.5c0.4-0.6,0.8-1.1,0.9-1.4V232.2z M211.9,217.4l0.3-0.2l0.2,0.7L211.9,217.4z M213.7,230.4H213
					c-0.3,0-0.4-0.2-0.4-0.6c0.2-0.2,0.6-0.2,0.9,0.2c0.4-0.4,0.7-0.7,0.9-0.7C214.5,230,214.2,230.4,213.7,230.4 M215.1,223.3h0.5
					c0.1,0.2,0,0.6-0.5,1V223.3z M215.2,228.3c-0.1,0.1-0.2,0.3-0.2,0.4c-0.3-0.4-0.2-0.8,0.4-1.4c0.1,0.3,0.2,0.5,0.3,0.5v1.1
					C215.7,228.9,215.6,228.7,215.2,228.3 M216.1,230.2c-0.3-0.2-0.4-0.3-0.6-0.3c0.2-0.2,0.3-0.5,0.4-0.7c-0.3-0.1-0.1-0.1,0.7-0.1
					C216.2,229.8,216.1,230.1,216.1,230.2 M216.4,220.4c-0.1-0.2-0.2-0.4-0.3-0.6c0.4-0.4,0.7-0.7,0.7-0.7c0.2,0.1,0.3,0.4,0.3,0.7
					C216.9,220.3,216.6,220.4,216.4,220.4 M218,224.9h-0.4v-0.7h0.4V224.9z"/>
				<path class="st1" d="M252.8,263.5c-1.2,1.1-3.5,2.2-6.7,3.2c-2.9,0.9-5,1.4-6.4,1.4c-1.4,0-2.9-0.5-4.5-1.6
					c-1.9-1.2-2.9-2.6-2.9-4c0-0.9,0.7-1.8,2-2.9c1.3-1.1,1.9-2.1,1.9-3c0.7-0.6,1.5-1.6,2.5-3.2c0.5-0.8,1.2-2,2.2-3.7
					c1.2-2.3,2.2-5,2.7-8c0.3-0.1,0.6-0.5,0.7-1.3c0.2-0.6,0.3-1.2,0.5-1.8c0.4-0.9,0.6-1.3,0.6-1.4c0-2.6,0-4-0.1-4.4
					c0.2-0.2,0.4-0.3,0.5-0.4c0.1-0.7,0.1-1.2,0.1-1.5c0.6,0,0.9-0.1,1.1-0.4c-0.1-0.1-0.4-0.3-0.9-0.8c-0.5-0.4-0.8-0.7-1-0.7
					s-0.3,0.1-0.4,0.2c-0.1,0.2-0.2,0.2-0.4,0.2c-0.2,0-0.6-0.2-1.4-0.5c-0.7-0.3-1.2-0.5-1.4-0.5c-0.9,0-1.9,0.2-3,0.6
					c-3.9,1.2-7.6,5.4-11.1,12.7c-0.6,0.8-1,1.4-1.4,1.8c-1.7,4.4-2.5,7.1-2.5,8.1c0,1.5,0.1,3.4,0.3,5.7c0.2,0.9,0.4,1.6,0.6,2.1
					c0.1,0.9,0.1,1.5,0.2,2c0.4,0.8,0.7,1.4,0.8,1.8c0.6,2.1,1.9,3.9,3.9,5.5c0.8,0.6,1.9,1.3,3.4,2.2c1.5,0.8,2.4,1.2,2.6,1.2
					c0.2,0,0.3,0,0.2-0.1c0-0.1,0-0.1,0.2-0.1c0.2,0,0.3,0.1,0.3,0.3c0,0.2,0.1,0.3,0.1,0.3s0.3,0,0.6,0.1c0.3,0.1,0.6,0.1,0.8,0.1
					c0.2,0,0.7,0,1.5,0.1c0.8,0.1,1.3,0.1,1.5,0.1c0.7,0,1.8-0.3,3.1-0.8c1.6-0.7,2.5-1,2.5-1l0.2-0.4c0.2,0,0.3,0,0.3,0.1
					c0,0.1,0.1,0.1,0.3,0.1c0.2,0,0.6-0.2,1.2-0.6c0.6-0.4,1.1-0.7,1.3-0.8c0.2-0.6,0.8-1.4,1.8-2.3c0.3,0.3,0.4,0.5,0.4,0.7
					c0.6-0.4,1-0.7,1.2-0.9c0-0.2,0-0.5-0.1-0.7c0.6-0.7,1.1-1.3,1.3-1.8C253.6,264.1,253.2,263.7,252.8,263.5 M240.8,235.1l0.8,0.4
					l-0.2,0.3l-0.7-0.4L240.8,235.1z M233.7,249.3c0,0.1,0.4-1.2,1.3-3.7c0.4-0.7,0.7-1.2,1-1.7c0.5-3.1,1.4-5.3,2.8-6.8
					c0.4-0.5,0.9-0.7,1.7-0.7c-0.1,0.4,0,0.8,0.1,1.2l-0.4,0.5c-0.1,0.1-0.1,0.1,0,0.1c0,0,0,0.1,0,0.3v1.1c-0.8,1.1-1.3,2-1.6,2.9
					c-0.5,1-0.9,1.8-1.1,2.4c-1.3,2.3-2.3,4-3.1,5.1h-0.7V249.3z"/>
				<path class="st1" d="M331.4,256.3c0.2-0.6,0.5-1.4,1-2.5c0.4-0.9,0.7-1.4,0.7-1.6c0-0.2-0.1-0.5-0.3-0.9
					c-0.2-0.3-0.3-0.5-0.3-0.6c-0.4-0.4-0.7-0.7-0.9-0.8h-0.8c-1.2,2.2-2.2,3.7-2.9,4.7c-0.2,0.6-0.3,1.1-0.4,1.4
					c-1.6,2.5-4.6,5.6-8.9,9.4c-0.5,0.2-0.9,0.4-1.1,0.4c-0.7,0.5-1.5,1-2.2,1.5c-1.4,0.9-2.3,1.3-2.9,1.3c-1,0-1.9-0.9-2.6-2.7
					c-0.6-1.4-0.9-2.8-0.9-4.2c-0.2-0.8-0.3-1.1-0.3-0.9c0-2.2,0.3-4.5,0.9-6.8c0.6-2.3,1.2-4.6,1.9-7c0.9-2.6,2.3-5,4.3-7
					c1.2-2.1,2.2-3.8,2.7-5.2c-0.3-0.3-0.7-0.5-1.2-0.5c-0.4,0-0.8,0.1-1.4,0.3c-0.5,0.2-0.8,0.3-0.9,0.3c-0.2,0-0.7-0.2-1.5-0.5
					c-0.8-0.3-1.3-0.5-1.5-0.5c-0.2,0-0.5,0.2-1,0.6c-0.5,0.4-0.8,0.6-1,0.6c-0.3,0-0.6-0.2-1.1-0.5c-0.1,0.9-0.4,1.4-0.7,1.5
					c0.2-0.1-0.1-0.1-0.9-0.1c-0.1,0-1-0.3-2.6-0.8c-1.6-0.6-2.5-0.8-2.7-0.8H301c-1.4,2.7-2.7,4.8-3.8,6c-1.7,2.9-2.9,5-3.7,6.5
					c0.1,0.3,0.1,0.6,0,0.9c-0.2,0.5-0.5,0.9-0.7,1.4c-1.2,1.2-1.8,1.9-1.9,2.1c-0.4,1.3-0.7,2.4-0.8,3.3c0,0.1-0.1,0.2-0.1,0.2
					c0,0-0.1,0-0.2,0c-0.2,0-0.5,0.1-0.8,0.4c-0.3,0.3-0.6,0.5-0.7,0.5l-0.5-0.5c-0.2,0.2-0.5,0.7-0.9,1.5c-0.4,0.6-0.7,0.8-0.9,0.8
					s-0.5,0-0.7,0.1h-0.5c0.3,0.6,0.3,0.9,0.1,1.1c-0.2,0-0.4-0.2-0.7-0.5v0.7c-0.7,0.5-2.2,1.7-4.3,3.5c-1.8,1.6-3.3,2.6-4.6,3.2
					c-0.1,0.1-0.2,0.2-0.4,0.5c-0.2,0.3-0.4,0.4-0.6,0.4c-0.2,0-0.3,0-0.2-0.1c0-0.1,0-0.1-0.2-0.1s-0.5,0.3-0.8,1
					c-0.3,0.7-0.6,1-0.8,1c-0.2,0-0.3,0-0.2-0.1c0-0.1,0-0.1-0.2-0.1s-0.7,0.3-1.7,0.8c-1.2,0.7-1.9,1.1-2.2,1.2l-0.5-0.6
					c-1,0.5-1.6,0.8-1.9,0.8c-0.4,0-0.8-0.6-1.3-1.8c-1.1-2.7-1.7-4.4-1.8-4.9c-0.2-0.5-0.2-1.6-0.2-3.3c0-3.1,0.4-5.6,1.3-7.4
					c1.2-1.8,2.2-3.1,2.9-3.8c2.3-3,4.1-5.3,5.4-6.8c1.3-1.6,2.3-2.7,3-3.5c2.6-4.4,4.5-7.7,5.7-9.9c1.7-2.5,3-5.5,3.7-8.9
					c0.3-0.6,0.6-1,0.8-1.2c0.1-0.9,0.4-2.1,0.9-3.6c-0.3-0.2-0.3-0.4,0-0.7c0.6,0.2,1,0.1,1.3-0.2c-0.6-0.4-1.4-0.8-2.5-1.3
					c-0.5-0.4-0.9-0.8-1.1-1.1c-1.3-0.5-2.3-0.8-3-1c-0.7-0.2-1.4-0.3-2.1-0.3c-0.2,0-0.7-0.2-1.3-0.5c-0.6-0.3-1-0.5-1.2-0.6
					c0,0.3,0,0.6-0.1,0.7c-0.6,0.3-1.1,0.6-1.3,0.9c-1.3,2-2.5,4-3.8,6c-1.7,2.6-3.1,5.2-4.2,7.8c-1.7,3.6-3,6.3-3.8,8.2
					c-0.9,2.6-1.9,4.8-3.2,6.6c-0.6,2.6-1.3,5.2-1.9,7.8c-0.9,3.9-1.4,6.7-1.4,8.4c0,1.3,0.1,2.8,0.3,4.6c0.6,2.6,1.1,4.5,1.5,5.8
					c0.1,0.3,0.2,0.4,0.3,0.5c0.1,1.3,0.8,2.9,1.9,4.7c1.2,1.8,2.3,3.1,3.3,3.9c1.7,1.2,3.5,1.8,5.5,1.8h1.6c0.9,0,1.7-0.3,2.3-0.8
					l0.2-1.1c0.1,0.1,0.2,0.1,0.3,0.1c0.1,0,0.2,0.1,0.3,0.1c-0.1,0.1-0.2,0.4-0.2,0.8c0.6-0.9,1.1-1.4,1.5-1.7
					c0.4,0.5,0.6,0.8,0.6,0.8c0-0.5,0.1-0.8,0.2-0.9c0.1,0.1,0.3,0.2,0.5,0.2c0.2,0,0.3-0.2,0.5-0.6c1.1-0.4,2-0.8,2.7-1.4
					c0.7-0.5,1.5-1.1,2.3-1.6c0.8-0.6,1.5-1.4,2-2.4c0.1-0.2,0.4-0.3,0.8-0.3c-0.2-0.1-0.3-0.3-0.3-0.6c0-0.5,0.6-1.3,1.7-2.4
					l0.9-0.4c0.3-0.4,0.5-0.7,0.8-1.1c0.2,0.8,0.8,2,1.7,3.5c1.3,1.6,2.3,2.7,3.1,3.4c1.4,0,3-0.9,5-2.6c0.7-0.7,2.3-2.4,4.6-5.1
					h0.7c1.3,2.4,2.7,4.8,4,7.2c2.1,2.9,4.6,4.4,7.6,4.4c0.4,0,1.5-0.3,3.1-0.8c1.9-0.7,3.3-1.3,4.2-2c2.7-2.2,4.6-3.9,5.8-5.1
					c0.9-1,1.6-1.9,1.9-2.6c0.4-1.3,0.6-2.3,0.7-2.9c0.4-0.7,0.8-1.2,1.1-1.5C331.2,258.2,331.4,257.1,331.4,256.3 M273.5,227.8
					c0.2-0.5,0.4-1.1,0.4-1.7c0.3-0.3,0.6-0.5,0.7-0.7c0.2-0.7,0.6-1.4,1-2.2c0.4-0.8,1-1.2,1.7-1.3c0,0.1,0,0.1,0.1,0.2
					c0.1,0.1,0.1,0.3,0.1,0.5c-0.8,1.3-1.2,2.1-1.3,2.2c-0.2,0.6-0.3,1.1-0.5,1.5c-1.6,2.7-3.5,5.7-5.7,8.7h-0.4
					C270.4,234,271.6,231.6,273.5,227.8 M281.7,262l-0.4-0.2l0.5-0.8l0.4,0.2L281.7,262z M290.8,252.6l0.3-1.1h0.4l0,0.1
					c-0.2,0.4-0.4,0.7-0.5,1.1H290.8z M299.4,256.1c-1.1,1.4-2.2,2.7-3.4,4.1c-0.4,0.2-0.8,0.3-1.2,0.4c-0.4,0.7-0.7,1.4-1,1.9
					c-0.3-0.3-0.4-0.5-0.4-0.7c-0.1,0.2-0.2,0.1-0.2-0.6c0-1.4,1-3.9,2.9-7.5c1.3-2.2,2.6-4.5,3.9-6.8c1.7,0.6,2.6,1.8,2.6,3.7
					C302.7,251.5,301.6,253.3,299.4,256.1 M303.4,244.5c-1.1,0.9-2,1.4-2.7,1.5c0.2-0.2,0.8-1.2,2-3c0.7-1.1,1.4-1.6,2.1-1.5
					c0.2,0.2,0.3,0.4,0.3,0.8C305,242.8,304.4,243.6,303.4,244.5"/>
				<path class="st1" d="M349.5,256.2c0.2-0.6,0.9-1.6,2.2-2.9c-0.1-0.2-0.2-0.3-0.1-0.3c0.5-0.2,0.9-0.6,1.3-1.2
					c0.2-0.5,0.5-1,0.9-1.5c0.3-0.5,0.7-1,1.2-1.4c0.7-0.7,1-1.4,0.9-1.9c0.4-0.2,0.7-0.3,0.8-0.4c0.9-1.6,1.5-2.7,2-3.5
					c1.3-0.4,2.2-0.7,2.8-0.9c0.1-0.3,0.3-0.7,0.8-1.1c0.5-0.4,0.9-0.6,1.2-0.5c0.4-0.8,0.8-1.1,1.2-0.9c0-0.1,0-0.2,0.1-0.5
					c0.1-0.2,0.1-0.4,0.1-0.5c-2.6-1.6-4.2-2.4-4.8-2.4c-0.2,0-0.2,0-0.2,0.1c0.1,0.1,0,0.1-0.2,0.1c-0.6-0.2-1-0.6-1.2-1.1
					c-1.7,0-2.6,0.6-2.7,1.9c-0.2,0-0.4-0.1-0.4-0.4c-0.1,0.1-0.2,0.3-0.4,0.6c-0.2,0.3-0.2,0.5-0.2,0.7c-1,0.9-1.7,1.5-2.2,1.9
					c-2.1,2.7-3.7,4.5-4.8,5.5c-0.1,0.7-0.2,1.2-0.2,1.2c-0.6-0.2-0.9-0.1-1.1,0.4c-0.2,0.4-0.3,0.8-0.4,1.2c-0.4,0.2-0.8,0.5-1,0.7
					c0.1,0,0.2,0.1,0.2,0.3c-0.2,0.4-0.5,0.6-0.7,0.6c-0.2,0-0.5-0.1-0.8-0.3l1.2,1.4L349.5,256.2z"/>
				<path class="st1" d="M338.6,251.9c0.5,0.8,1,1.5,1.6,2.4c-0.9,1.3-1.6,2.5-2.2,3.6c-0.4,0.4-0.8,1-0.9,1.7v-0.1
					c0-0.1-0.1-0.1-0.4-0.1c-0.1,0-0.3,0.2-0.4,0.7c-0.2,0.5-0.2,0.8-0.1,1c-0.2,0.2-0.3,0.3-0.4,0.4c-0.1,1.1-0.1,1.7-0.1,1.8
					c-0.4,0.2-0.6,0.4-0.7,0.6c0,0.4-0.3,0.8-1,1.2c0.2,0.4,0.3,0.9,0.2,1.4c-0.1,0.6-0.5,1-1.1,1c-0.1,0.6-0.2,1.1-0.5,1.5
					c0.1-0.1,0.3-0.2,0.6-0.1c0.1-0.1,0.2,0,0.2,0.2c-0.2,0.1-0.5,0.3-0.7,0.7l-1.1,3.6c-0.5,2.7-0.8,4.7-0.9,5.9
					c0.2-0.9,0.7-2.1,1.4-3.4c0.2-0.1,0.4-0.1,0.6-0.1c0.4-0.6,0.6-0.8,0.7-0.8c0.5-0.1,0.9-0.4,1.3-0.9c0.9-1.3,1.5-2.3,1.9-3.1
					c0.1,0,0.2,0.2,0.4,0.6l0.7-0.7c-0.4-0.2-0.6-0.4-0.6-0.6c0-0.1,0.2-0.4,0.7-0.7c0.4,0.4,0.5,0.7,0.5,0.7c1.6-2.6,2.6-4,3-4.4
					c0.1,0.3,0.2,0.4,0.2,0.6c-0.1,0.4-0.2,0.7-0.2,0.8c-0.4,0.2-0.7,0.3-0.9,0.5c-0.7,0.5-1,1-1,1.5v0.7c1.6-0.9,2.6-2,3-3.3
					c1.9-2.5,3.6-4.7,4.8-6l-1.8-1.9L338.6,251.9z M334.5,271.6v-0.3l0.4-0.3l0.2,0.3L334.5,271.6z M341.6,264.7l-0.3-0.2l0.6-0.6
					l0.1,0.3L341.6,264.7z"/>
				<polygon class="st1" points="333.1,276.1 333.5,275.1 332.8,276 				"/>
				<polygon class="st1" points="335.9,272 336.3,272.1 336.6,271.6 336.2,271.5 				"/>
				<polygon class="st1" points="337,272 337.2,272.1 337.5,271.6 337.2,271.5 				"/>
				<path class="st1" d="M449.9,249.2c-0.3-0.3-0.6-0.5-0.9-0.5c-2.8,4.3-6.6,8.1-11.4,11.3c0.1,0.2,0.1,0.3,0,0.5
					c-0.8,0.4-1.6,0.8-2.3,1.2c-1,0.5-1.7,0.8-2.2,0.8c-0.2,0-0.7,0-1.6,0.1c-0.9,0.1-1.4,0.1-1.6,0.1c-0.5,0-1.2-0.3-2-1
					c-0.8-0.7-1.2-1.2-1.3-1.7c-0.7-3.4-1.1-5.9-1.1-7.5c0-2.9,0.3-4.7,1-5.4c-0.1,0-0.3-0.1-0.6-0.4l0.3-0.4
					c0.1,0.3,0.2,0.4,0.2,0.5c0.4-1,0.5-1.5,0.5-1.5l-0.3-0.4c0.7-1.5,1.3-2.6,1.6-3.3c0.1,0.1,0.1,0.2,0.2,0.3
					c0.1,0.1,0.2,0.3,0.2,0.4c0-0.6-0.1-0.8-0.3-0.7c-0.2-0.6,0.1-1.3,0.8-2.2c0.7-0.9,1.1-1.4,1.1-1.5H430
					c-0.1-0.2-0.2-0.3-0.2-0.4c0.6-0.6,0.9-1.1,0.9-1.4c-0.1-0.2-0.2-0.4-0.2-0.5c0.5-1.6,1.2-4.1,2-7.6c-0.2-0.1-0.3-0.2-0.3-0.4
					c0.3-0.7,0.6-1.2,0.9-1.3c0.2,0.6,0.5,0.9,0.7,0.8c0.6-1.3,1-2.3,1.3-3.1c-0.7-0.7-1.2-1.2-1.2-1.2c-0.6-0.2-0.9-0.3-0.9-0.4
					c-0.6-0.6-1.1-1.1-1.4-1.4c-1.9-0.9-3-1.4-3.4-1.4c-1.6,0-2.8,0.4-3.5,1.3c-0.3,0.3-0.5,0.9-0.7,1.7c-0.2,0.8-0.5,1.4-0.8,1.6
					c-0.6,1.3-1.1,2.3-1.4,3c-0.4,1.7-0.7,2.7-0.8,3c0.2,0.4,0.2,0.8,0.1,1c-0.7,1.3-1.2,2.2-1.4,2.8c-0.4-0.1-1-0.3-1.9-0.7
					c-0.9-0.3-1.4-0.5-1.6-0.5c-0.1,0-0.3,0.1-0.6,0.4l-0.5-0.4c-0.1,0-0.3,0-0.4-0.1c-0.2-0.1-0.3-0.1-0.5-0.1
					c-0.2,0-0.3,0.1-0.4,0.2c-0.1,0.1-0.2,0.2-0.4,0.2c-0.1,0-0.3-0.1-0.6-0.2c-0.3-0.1-0.5-0.2-0.5-0.2c0,0.2-0.1,0.4-0.4,0.6
					c0,0,0-0.1-0.1-0.1c0,0.1,0.1,0.2,0.1,0.3c0,0.9-0.6,1.6-1.7,2.1c-0.1-0.2-0.2-0.4-0.2-0.7c-0.7,1.3-1.3,2.1-1.6,2.7
					c-0.3,0.5-0.6,0.9-0.7,1.1c0.1,0.3,0.1,0.6-0.1,0.7c-0.1,0-0.1,0-0.1-0.1s-0.1-0.1-0.3-0.1c-0.3,0-0.4,0.1-0.5,0.3
					c-0.1,0.2-0.2,0.4-0.2,0.5c-0.3,0.9-0.4,1.7-0.6,2.2c-1.6,2.8-2.8,4.9-3.7,6.6c0.1,0.1,0.1,0.3,0,0.4c-0.3,0.3-0.6,0.5-0.7,0.7
					c-0.1,1.1-0.3,2-0.7,2.7c-0.4,0.7-0.8,1.5-1.2,2.2c-0.2,0.4-0.3,1.2-0.3,2.2c0.1,1-0.2,1.9-0.7,2.5c-0.3,0.1-0.5,0.2-0.6,0.3
					c-0.5,2.7-0.8,4.2-0.8,4.6c0,0,0,0,0,0.1c-0.4-0.5-0.8-0.9-1.1-1.1c-1.2,1.1-3.5,2.2-6.7,3.2c-2.9,0.9-5,1.4-6.4,1.4
					c-1.4,0-2.9-0.5-4.5-1.6c-1.9-1.2-2.9-2.6-2.9-4c0-0.9,0.7-1.8,2-2.9c1.3-1.1,1.9-2.1,1.9-3c0.7-0.6,1.5-1.6,2.5-3.2
					c0.5-0.8,1.2-2,2.2-3.7c1.2-2.3,2.2-5,2.7-8c0.3-0.1,0.6-0.5,0.7-1.3c0.2-0.6,0.3-1.2,0.5-1.8c0.4-0.9,0.6-1.3,0.6-1.4
					c0-2.6,0-4-0.1-4.4c0.2-0.2,0.4-0.3,0.5-0.4c0.1-0.7,0.1-1.2,0.1-1.5c0.6,0,0.9-0.1,1.1-0.4c-0.1-0.1-0.4-0.3-0.9-0.8
					c-0.5-0.4-0.8-0.7-1-0.7c-0.2,0-0.3,0.1-0.4,0.2c-0.1,0.2-0.2,0.2-0.4,0.2c-0.2,0-0.6-0.2-1.4-0.5c-0.7-0.3-1.2-0.5-1.4-0.5
					c-0.9,0-1.9,0.2-3,0.6c-3.9,1.2-7.6,5.4-11.1,12.7c-0.6,0.8-1,1.4-1.4,1.8c-1.7,4.4-2.5,7.1-2.5,8.1c0,1.5,0.1,3.4,0.3,5.7
					c0.2,0.9,0.4,1.6,0.6,2.1c0.1,0.9,0.1,1.5,0.2,2c0.4,0.8,0.7,1.4,0.8,1.8c0.6,2.1,1.9,3.9,3.9,5.5c0.7,0.6,1.9,1.3,3.4,2.2
					c1.5,0.8,2.4,1.2,2.6,1.2c0.2,0,0.3,0,0.2-0.1c0-0.1,0-0.1,0.2-0.1c0.2,0,0.3,0.1,0.3,0.3c0,0.2,0.1,0.3,0.1,0.3
					c0.1,0,0.3,0,0.6,0.1c0.3,0.1,0.6,0.1,0.8,0.1c0.2,0,0.7,0,1.5,0.1c0.8,0.1,1.3,0.1,1.5,0.1c0.7,0,1.8-0.3,3.1-0.8
					c1.6-0.7,2.5-1,2.5-1l0.2-0.4c0.2,0,0.3,0,0.3,0.1c0,0.1,0.1,0.1,0.3,0.1c0.2,0,0.6-0.2,1.2-0.6c0.6-0.4,1.1-0.7,1.3-0.8
					c0.2-0.6,0.8-1.4,1.8-2.3c0.2,0.3,0.4,0.5,0.4,0.7c0.6-0.4,1-0.7,1.2-0.9c0-0.2,0-0.5-0.1-0.7c0.6-0.7,1-1.2,1.2-1.7
					c0,1.6,0.3,2.8,0.7,3.7c0.5,0.9,1.5,2.1,3,3.6c0.6,0.3,1,0.5,1.4,0.6c0.1,0.1,0.5,0.3,1.2,0.8c0.7,0.4,1,0.7,1.1,0.7
					c0.1,0,0.2-0.1,0.6-0.4c0.1,0.1,0.2,0.4,0.2,0.7c0-0.4,0.1-0.6,0.4-0.7c0.2,0.1,0.3,0.3,0.3,0.7c1.6-0.6,2.8-1.1,3.7-1.4
					c-0.1-0.4,0-0.6,0.4-0.6c0.2,0,0.3,0,0.2,0.1c0,0.1,0,0.1,0.1,0.1c0.4,0,0.6-0.2,0.7-0.7c1.2-1.6,2.3-2.6,3.1-3.1
					c0.6-0.9,1.1-1.7,1.3-2.2c0.8-1,1.1-1.7,1-2.1c0.3-0.3,0.6-0.4,0.7-0.6c0,0,0,0,0,0l-0.4-0.3c0.7-1.4,1.2-2.3,1.7-2.9
					c0.2,0.4,0.6,0.6,1.1,0.6c-0.1-0.1-0.2-0.1-0.3-0.2c-0.1-0.1-0.2-0.2-0.3-0.2l0.4-0.4c0.5-0.6,0.9-0.9,1.2-1
					c0.6,0.6,1,1.2,1.2,1.6c1.2,1.7,2.8,3.1,4.5,4.2c1.8,1.1,3.4,1.7,4.7,1.6c0.4,0.2,0.7,0.4,0.8,0.4s0.3-0.1,0.4-0.2
					c0.1-0.2,0.2-0.2,0.4-0.2c0.4,0,0.6,0.2,0.6,0.7c0.4-0.4,0.8-0.7,1-0.7c0.2,0,0.3,0.1,0.5,0.2c0.1,0.2,0.2,0.2,0.4,0.2
					c0.2,0,0.5-0.1,0.9-0.2c0.4-0.2,0.7-0.2,0.9-0.2c0.6,0,2.2-1,4.8-2.9c1.1-0.8,2.1-1.7,3-2.8c1.5-2,2.7-3.6,3.5-4.7
					c0-0.2,0.3-1,0.9-2.4c0.4-1,0.7-1.9,0.7-2.7C450,250.1,449.9,249.4,449.9,249.2 M433.7,225.9c0,0.4,0,0.7-0.1,0.7
					c0-0.3-0.2-0.5-0.5-0.5C433.5,226.1,433.7,226.1,433.7,225.9 M384.4,235.1l0.8,0.4l-0.2,0.3l-0.7-0.4L384.4,235.1z M377.2,249.3
					c0,0.1,0.4-1.2,1.3-3.7c0.4-0.7,0.7-1.2,1-1.7c0.5-3.1,1.4-5.3,2.8-6.8c0.4-0.5,0.9-0.8,1.7-0.8c-0.1,0.4,0,0.8,0.1,1.2
					l-0.4,0.5c-0.1,0.1-0.1,0.1,0,0.1c0,0,0,0.1,0,0.3v1.1c-0.8,1.1-1.3,2-1.6,2.9c-0.5,1-0.9,1.8-1.1,2.4c-1.3,2.3-2.3,4-3.1,5.1
					h-0.7V249.3z M416,266l-0.3-0.1l0.3-0.6l0.3,0.1L416,266z M418.9,248c0.2,1.1,0.2,2.3-0.1,3.7c-2.7,4.1-4.3,6.5-4.5,7.3
					l-0.7,0.3c-0.2,0.6-0.3,1-0.4,1c-1.5,1.6-2.7,2.8-3.5,3.7c-1.1,0.9-1.9,1.7-2.6,2.2c-0.5,0-0.9,0.3-1.2,0.8
					c-0.8-0.3-1.2-0.7-1.2-1c0-0.8,0.7-3.8,2.1-8.8c0.5-0.7,0.8-1.2,0.8-1.7c0-0.7,0-1.1,0.1-1.1c0.7-0.8,1.1-1.2,1.1-1.3
					c1.6-4.1,3.8-8,6.7-11.8c0.2-0.2,0.3-0.7,0.4-1.2c0.4-0.1,0.8-0.5,1-1h1.2c0,1.5,0,2.3,0.1,2.4c0.2,1,0.5,1.7,0.7,2.2
					c0.1,0.2,0.1,0.5,0,1c0,0.5,0,0.8,0,1c0.1,0.2,0.2,0.5,0.4,1c0.2,0.5,0.3,0.8,0.3,1L418.9,248z M436.4,264.5c0-0.6,0-1,0.1-1.1
					c0,0.2,0.2,0.5,0.5,0.9c0,0-0.1,0-0.1,0L436.4,264.5z"/>
				<polygon class="st1" points="418.6,262.1 418.8,262.3 419.3,261.8 419.1,261.6 				"/>
				<path class="st1" d="M417.6,263.8c0,0-0.1,0.1-0.1,0.2C417.6,264,417.6,263.9,417.6,263.8"/>
				<path class="st2" d="M356.7,264.7l-2.4-2.8l-2.2-2.6l-0.7-0.8c-0.3-0.4-0.5-0.6-0.6-0.7l-0.1-0.1c-0.2-0.2-1-1.2-1-1.2l-0.2-0.2
					l-4.4-5.1l-1.2-1.4l-0.8-1l-0.3-0.4l-3.5-4.1l0,0l0,0l-19.6-23.1c0,0-9.3-15.6-16-12.6c0,0-3.9,5.3,9.7,17.1l21.4,22.4l3.7,3.9
					l6.2,6.5l1.8,1.9l2.1,2.1l54.4,56.8L356.7,264.7z M315.4,222.2c-0.7,0.6-3.3-1.2-5.7-4c-2.4-2.8-3.8-5.6-3.1-6.2
					c0.7-0.6,3.3,1.2,5.7,4C314.7,218.8,316.1,221.5,315.4,222.2"/>
			</g>
		</g>
	</g>
	<g>
		<path class="st1" d="M389.3,200.5c-0.2,0.4-0.7,1-1.3,1.8c0.1,0.2,0.1,0.4,0.1,0.7c-0.3,0.3-0.7,0.6-1.2,0.9
			c0-0.2-0.1-0.4-0.4-0.7c-0.9,0.9-1.5,1.7-1.8,2.3c-0.2,0.1-0.7,0.4-1.3,0.8c-0.6,0.4-1,0.6-1.2,0.6c-0.2,0-0.3,0-0.3-0.1
			c0-0.1-0.1-0.1-0.3-0.1l-0.2,0.4c-0.1,0-0.9,0.3-2.5,1c-1.3,0.6-2.3,0.8-3.1,0.8c-0.2,0-0.7,0-1.5-0.1c-0.8-0.1-1.3-0.1-1.5-0.1
			s-0.5,0-0.8-0.1c-0.3-0.1-0.5-0.1-0.6-0.1c-0.1,0-0.1-0.1-0.1-0.3c0-0.2-0.1-0.3-0.3-0.3s-0.3,0-0.2,0.1c0,0.1,0,0.1-0.2,0.1
			c-0.2,0-1.1-0.4-2.6-1.2c-1.5-0.8-2.6-1.5-3.4-2.2c-2-1.6-3.3-3.5-3.9-5.5c-0.2-0.4-0.5-1-0.8-1.8c-0.1-0.4-0.1-1.1-0.2-2
			c-0.2-0.5-0.4-1.2-0.6-2.1c-0.2-2.3-0.3-4.2-0.3-5.7c0-1,0.8-3.7,2.5-8.1c0.4-0.4,0.8-1,1.4-1.8c3.4-7.3,7.1-11.6,11.1-12.7
			c1.1-0.4,2.1-0.6,3-0.6c0.2,0,0.6,0.2,1.4,0.5c0.7,0.3,1.2,0.5,1.4,0.5c0.2,0,0.3-0.1,0.4-0.2c0.1-0.2,0.2-0.2,0.4-0.2
			s0.5,0.2,1,0.7c0.5,0.4,0.8,0.7,0.9,0.7c-0.2,0.3-0.6,0.4-1.1,0.4c0,0.3,0,0.8-0.1,1.5c-0.1,0.1-0.2,0.2-0.5,0.4
			c0.1,0.4,0.1,1.8,0.1,4.4c0,0.1-0.2,0.5-0.6,1.4c-0.1,0.6-0.3,1.2-0.5,1.8c-0.2,0.8-0.4,1.3-0.7,1.3c-0.6,3-1.5,5.7-2.7,8
			c-0.9,1.6-1.7,2.8-2.2,3.7c-1,1.6-1.8,2.6-2.5,3.2c0.1,0.9-0.6,1.9-1.9,3c-1.3,1.1-2,2-2,2.9c0,1.4,1,2.8,2.9,4
			c1.6,1.1,3.1,1.6,4.5,1.6c1.4,0,3.5-0.5,6.4-1.4c3.2-1,5.5-2.1,6.7-3.2C388.5,199.5,388.9,199.9,389.3,200.5 M375.8,172.2
			c-0.7,0-1.3,0.2-1.7,0.7c-1.4,1.5-2.3,3.8-2.8,6.8c-0.3,0.4-0.7,1-1,1.7c-0.9,2.5-1.3,3.7-1.3,3.7v0.7h0.7
			c0.8-1.1,1.8-2.7,3.1-5.1c0.3-0.6,0.6-1.4,1.1-2.4c0.2-0.9,0.8-1.8,1.6-2.9v-1.1c0-0.2,0-0.3,0-0.3c0,0,0,0,0-0.1l0.4-0.5
			C375.8,173,375.8,172.6,375.8,172.2 M377,171.3l-0.8-0.4l-0.1,0.3l0.7,0.4L377,171.3z"/>
		<path class="st1" d="M427.8,190.7c-0.1,0.8-0.2,2.1-0.4,3.8c-0.1,0.2-0.1,0.5-0.2,0.8c0.1,0.1,0.2,0.2,0.3,0.5
			c-0.1,1.4-1.1,4.7-2.8,9.7c-0.4,1.1-0.8,1.9-1.3,2.5c-0.6,0.9-1.7,1.9-3.4,3c-0.8,0.1-1.1,0.2-0.8,0.3c-2.2-0.2-3.9-1.5-5.1-3.9
			c-0.4-0.4-0.9-1.1-1.7-2.1l-0.1-0.9c-0.3-0.4-1.2-2.7-2.5-6.8c0.2-0.2,0.3-0.3,0.3-0.4c-0.1-0.1-0.2-0.1-0.3,0
			c-0.1-0.2-0.5-3.9-1.2-11.2c-0.6,0.3-1.2,0.8-1.7,1.6c-1.6,2.6-4.1,8.8-7.5,18.8c-0.2,0.2-0.5,0.7-0.8,1.2
			c0.1,0.2,0.4,0.4,0.8,0.7c-0.3,0.2-0.6,0.3-0.9,0.3l-1.3-0.1c-0.7-1-1.9-2.1-3.6-3.3c0-0.2-0.3-2.7-0.9-7.3
			c-0.1-0.3,0.1-0.6,0.4-0.8l-0.3-0.4c-0.1,0-0.2,0.1-0.2,0.2c0.1-0.7,0-1.9-0.3-3.4c-0.1-0.5,0-1.4,0.3-2.8
			c0.1-0.4-0.1-1.6-0.4-3.7c0.1-0.3,0.2-0.7,0.6-1c0-0.1-0.1-0.1-0.3-0.2c-0.2-0.1-0.3-0.2-0.2-0.4c0.1-0.7,0.2-1.5,0.4-2.5
			l-0.1-2.9c0.2-0.7,0.4-3.2,0.7-7.7c0.1,0.2,0.3,0.4,0.7,0.6c0.1-0.4,0-1-0.2-1.8c0.2,0,0.7,0.1,1.3,0.3c0.6,0.2,1,0.3,1.2,0.3
			c0.2,0,0.3,0,0.4,0.1c0.1,0.1,0.2,0.1,0.4,0.1c0.2-0.1,0.7-0.2,1.2-0.4c0.4,0.7,0.9,1.2,1.4,1.2c0.2-0.1,0.6-0.1,0.9-0.1
			c0.1,0.4,0.1,1,0.1,1.8c-0.6,1.1-1.2,2.2-1.8,3.3c-0.7,1.2-1.2,3.6-1.6,7.5l-0.6,5.3c-0.1,0.7,0.3,1.1,1,1.3
			c0.1-0.2,0.3-0.9,0.7-2.2c0.3-0.9,0.6-1.4,0.7-1.4c0.1,0.1,0.2,0.2,0.4,0.3c0.4-2.4,0.9-3.6,1.4-3.6c-0.1,0.1,0,0.2,0.1,0.4
			c0.2-0.3,0.4-0.8,0.8-1.5c0.7-1.2,2-2.9,3.7-5.3c0.4-0.3,0.8-0.5,1.1-0.6c0.6-0.2,1.5-0.2,2.6-0.2c1.7,0.1,3,0.6,4,1.5
			c0.2,0.2,0.4,0.7,0.5,1.5c0.1,0.8,0.2,1.3,0.3,1.6c0.6,1.5,0.9,3.4,0.9,5.8c-0.1,3.1,0,5,0.1,5.8c0.1,0.6,0,1.1-0.2,1.7
			c0,0.1,0.1,0.2,0.3,0.3c-0.1,0.6,0,1.7,0.2,3.1c0.2,1.4,0.3,2.4,0.3,3l0.4,0.4c0.4-0.6,1.1-1.6,2-2.8c0.7-2.4,1.6-5,2.4-7.7
			c0.2-0.7,0.5-2.2,0.7-4.2c-0.2-1.1-0.2-2.6-0.1-4.4c-0.1-0.8-0.5-2-1.3-3.6c-0.8-1.6-1.2-2.3-1.2-2.2c0.1-0.4,0.4-0.8,1.1-1.2
			c0.7-0.3,1.2-0.5,1.6-0.5c0.2,0,0.7,0.1,1.6,0.4c0.9,0.3,1.5,0.5,1.7,0.5c0.2,0.1,0.6,0.2,1.3,0.3v-0.8l0.8,0.1
			c0.4,1.9,0.9,4.9,1.5,8.9c-0.1,0.2-0.2,0.7-0.3,1.4c0.2,0,0.3,0.5,0.1,1.4c0,0.2,0.2,1,0.6,2.3C428.1,190.4,428,190.5,427.8,190.7
			"/>
	</g>
	<path class="st1" d="M304.7,217.9v0.3c0,0.1,0.2,0.1,0.3,0.1h1c0.2,0,1.7-0.4,1.2-0.6c-0.3-0.1-0.7-0.2-1-0.3
		c-0.4-0.1-1.8,0.5-1.3,0.6c0.3,0.1,0.7,0.2,1,0.3c0.4-0.2,0.8-0.4,1.2-0.6h-0.5c-0.6,0-0.2,0.1-0.2-0.2
		C306.3,217.3,304.7,217.5,304.7,217.9"/>
	<path class="st1" d="M308.6,212.6c-0.1,0.2-1.3,0.7-1.3,0.7c0,0.2-0.2,0.2-0.3,0.3c-0.7,0.4-1.8,5-0.2,4.7c0.1,0,0.7,0.4,0.8,0.6
		c0.3,0.6,0,0.8-0.8,0.6c0.2-0.2,1.4-0.8,1.6-0.4c0.2,0.5,0.4,0.9,0.6,1.4c0,0,1-0.2,0.9,0.1c-0.9,0.7-0.1,1.4,0.5,2.1
		c0,0,0,0,0,0.1v0.6c0,0.4-1.5,0.7-1.6,0.4c-0.1-0.4-0.1-0.8-0.2-1.2c-0.1-0.4,1.3-0.6,1.6-0.5c1.8,0.4,3.4,0.3,4.8-0.2
		c0,0,0,0.2,0.3-0.3c0.3-0.6,0.4-0.3,0.4-0.3s0.1-0.1,0.1,0.4c0,0.5-0.3,0.7-0.3,0.7c-0.9,0.4-2.2,0.8-3.7,1.2
		c-1.3,0.3-3.7-0.6-4.6-1c0,0-0.1-0.1,0-0.1c0.3-0.5,0.7-1,1.2-1.2c-0.1,0-0.8,0.2-0.9,0c0.1-0.3,0.1-0.7,0.2-1
		c-0.2,0.2-1.6,0.7-1.6,0.4c0.1-0.9,0.4-1.1-0.6-0.9c-0.1,0-0.6,0.1-0.7-0.1c-0.3-3.1,0.4-5.4,1.6-7.4c0,0,0.4-0.7,1.1-0.4
		C308.1,212,308.7,212.1,308.6,212.6z"/>
</g>
</svg>
